<svg viewBox="40 40 750 666" fill="none" xmlns="http://www.w3.org/2000/svg">
<path d="M722.577 595.497L571.914 683.236L420.548 596.736L420.3 539.249C418.108 536.356 413.019 536.232 411.902 536.232C410.703 536.191 408.179 537.1 406.111 538.216C404.084 539.332 400.774 542.555 399.327 543.63C396.431 545.738 393.245 547.267 389.812 547.969C388.24 548.383 386.627 548.548 384.972 548.548C369.459 548.589 356.841 533.174 356.759 514.08C356.635 495.028 369.169 479.489 384.682 479.406C385.758 479.406 386.792 479.489 387.785 479.613C391.756 480.109 395.521 481.679 398.789 484.035C400.568 485.233 402.719 487.589 403.753 488.457C404.787 489.283 408.014 491.515 410 492.507C410.082 492.548 410.165 492.59 410.289 492.631C414.178 494.532 417.694 494.904 420.093 492.879L419.804 422.539L420.011 422.415L420.217 422.539L481.235 387.41C484.214 388.526 485.62 391.79 485.869 396.089C485.91 396.171 485.91 396.295 485.91 396.378C486.034 398.61 485.703 402.494 485.455 403.817C485.248 405.098 484.297 408.198 484.09 410.305C483.676 414.314 484.173 418.323 485.703 422.043C486.076 422.993 486.531 423.902 487.068 424.812C494.804 438.243 514.537 441.425 531.043 431.879C547.631 422.373 554.747 403.734 547.052 390.303C546.225 388.897 545.273 387.575 544.156 386.418C541.84 383.773 538.903 381.748 535.635 380.301C534.021 379.599 529.553 378.317 527.568 377.119C525.582 375.879 523.555 374.143 522.976 373.069C522.48 372.118 519.997 367.572 521.487 364.266L571.335 335.584V335.295L721.833 421.299L722.577 595.497Z" fill="#374157"/>
<path d="M521.487 364.266C519.998 367.572 522.48 372.118 522.976 373.069C523.555 374.143 525.582 375.879 527.568 377.119C529.554 378.317 534.021 379.598 535.635 380.301C538.903 381.747 541.84 383.772 544.157 386.418C545.274 387.575 546.225 388.897 547.052 390.302C554.747 403.734 547.632 422.373 531.043 431.878C514.537 441.425 494.804 438.243 487.069 424.811C486.531 423.902 486.076 422.993 485.703 422.042C484.173 418.323 483.676 414.314 484.09 410.305C484.297 408.197 485.248 405.098 485.455 403.817C485.703 402.494 486.034 398.609 485.91 396.378C485.91 396.295 485.91 396.171 485.869 396.088C485.621 391.79 484.214 388.525 481.236 387.409L420.424 422.414V422.29L359.448 387.12C358.869 384.02 360.978 381.169 364.577 378.772C364.66 378.689 364.743 378.648 364.826 378.606C366.687 377.367 370.245 375.714 371.486 375.259C372.727 374.804 375.871 374.102 377.815 373.193C381.497 371.539 384.724 369.101 387.164 365.919C387.785 365.134 388.364 364.266 388.902 363.356C396.638 349.925 389.522 331.286 372.975 321.78C356.428 312.234 336.737 315.375 328.959 328.765C328.132 330.211 327.47 331.699 327.015 333.228C325.898 336.534 325.609 340.089 325.981 343.643C326.188 345.42 327.346 349.925 327.263 352.239C327.181 354.554 326.684 357.199 326.064 358.232C325.526 359.141 322.878 363.439 319.321 363.976L269.431 335.212L269.307 335.295L269.472 161.097L420.59 74.1011L571.542 161.386L571.377 335.584L521.528 364.266H521.487Z" fill="#C0E5FF"/>
<path d="M420.011 422.414L419.804 422.538L420.093 492.879C417.694 494.904 414.178 494.532 410.289 492.631C410.165 492.589 410.082 492.548 410 492.507C408.014 491.515 404.787 489.283 403.753 488.457C402.719 487.589 400.568 485.233 398.789 484.035C395.521 481.679 391.756 480.108 387.785 479.612C386.792 479.488 385.758 479.406 384.682 479.406C369.169 479.488 356.635 495.028 356.759 514.08C356.841 533.174 369.459 548.589 384.972 548.548C386.627 548.548 388.24 548.382 389.812 547.969C393.245 547.266 396.431 545.737 399.327 543.63C400.774 542.555 404.084 539.331 406.111 538.216C408.179 537.1 410.703 536.191 411.902 536.232C413.019 536.232 418.108 536.356 420.3 539.249L420.424 568.013V596.53L269.389 683.608L118.396 596.53V422.29L269.389 335.212L319.279 363.976C322.837 363.439 325.484 359.141 326.022 358.232C326.643 357.199 327.139 354.554 327.222 352.239C327.305 349.925 326.146 345.42 325.939 343.643C325.567 340.089 325.857 336.534 326.974 333.228C327.429 331.699 328.091 330.211 328.918 328.765C336.695 315.375 356.386 312.234 372.934 321.78C389.481 331.286 396.596 349.925 388.86 363.356C388.323 364.266 387.743 365.134 387.123 365.919C384.682 369.101 381.456 371.539 377.774 373.193C375.829 374.102 372.685 374.804 371.444 375.259C370.203 375.714 366.646 377.367 364.784 378.607C364.701 378.648 364.619 378.689 364.536 378.772C360.937 381.169 358.827 384.02 359.406 387.12L420.383 422.29V422.414L420.176 422.538L419.969 422.414H420.011Z" fill="#4E88A5"/>
<path d="M347.184 216V205.008H351.12C354.816 205.008 357.44 207.28 357.44 210.496C357.44 213.712 354.816 216 351.12 216H347.184ZM349.536 213.856H351.424C353.52 213.856 355.008 212.464 355.008 210.496C355.008 208.544 353.52 207.152 351.424 207.152H349.536V213.856ZM360.364 206.592C359.644 206.592 359.084 206.016 359.084 205.312C359.084 204.656 359.644 204.064 360.364 204.064C361.052 204.064 361.612 204.656 361.612 205.312C361.612 206.016 361.052 206.592 360.364 206.592ZM359.18 216V207.728H361.516V216H359.18ZM366.659 216.192C365.331 216.192 363.923 215.744 362.931 214.944L363.939 213.328C364.675 213.856 365.603 214.256 366.707 214.256C367.331 214.256 367.779 214 367.779 213.632C367.779 213.12 367.171 212.96 366.323 212.736C364.627 212.32 363.315 211.856 363.299 210.224C363.283 208.656 364.579 207.536 366.531 207.536C367.715 207.536 368.883 207.952 369.795 208.56L368.851 210.224C368.099 209.76 367.235 209.488 366.531 209.488C365.955 209.488 365.555 209.696 365.555 209.984C365.555 210.432 365.891 210.56 367.011 210.864C368.435 211.232 370.019 211.712 370.019 213.52C370.019 215.152 368.691 216.192 366.659 216.192ZM375.635 216.192C373.187 216.192 371.123 214.208 371.123 211.856C371.123 209.504 373.203 207.536 375.651 207.536C376.995 207.536 378.099 208.08 378.899 208.944L377.347 210.272C376.931 209.808 376.275 209.504 375.635 209.504C374.419 209.504 373.395 210.576 373.395 211.84C373.395 213.136 374.419 214.224 375.651 214.224C376.291 214.224 376.963 213.904 377.395 213.424L378.947 214.736C378.131 215.632 377.011 216.192 375.635 216.192ZM385.84 207.728H388.176V216H385.84V214.96C385.344 215.712 384.416 216.192 383.344 216.192C381.552 216.192 380.272 214.864 380.272 212.992V207.728H382.528V212.496C382.528 213.52 383.168 214.224 384.096 214.224C385.072 214.224 385.824 213.52 385.824 212.624L385.84 212.672V207.728ZM393.284 216.192C391.956 216.192 390.548 215.744 389.556 214.944L390.564 213.328C391.3 213.856 392.228 214.256 393.332 214.256C393.956 214.256 394.404 214 394.404 213.632C394.404 213.12 393.796 212.96 392.948 212.736C391.252 212.32 389.94 211.856 389.924 210.224C389.908 208.656 391.204 207.536 393.156 207.536C394.34 207.536 395.508 207.952 396.42 208.56L395.476 210.224C394.724 209.76 393.86 209.488 393.156 209.488C392.58 209.488 392.18 209.696 392.18 209.984C392.18 210.432 392.516 210.56 393.636 210.864C395.06 211.232 396.644 211.712 396.644 213.52C396.644 215.152 395.316 216.192 393.284 216.192ZM401.316 216.192C399.988 216.192 398.58 215.744 397.588 214.944L398.596 213.328C399.332 213.856 400.26 214.256 401.364 214.256C401.988 214.256 402.436 214 402.436 213.632C402.436 213.12 401.828 212.96 400.98 212.736C399.284 212.32 397.972 211.856 397.956 210.224C397.94 208.656 399.236 207.536 401.188 207.536C402.372 207.536 403.54 207.952 404.452 208.56L403.508 210.224C402.756 209.76 401.891 209.488 401.188 209.488C400.612 209.488 400.212 209.696 400.212 209.984C400.212 210.432 400.548 210.56 401.668 210.864C403.092 211.232 404.676 211.712 404.676 213.52C404.676 215.152 403.348 216.192 401.316 216.192ZM407.411 206.592C406.691 206.592 406.131 206.016 406.131 205.312C406.131 204.656 406.691 204.064 407.411 204.064C408.099 204.064 408.659 204.656 408.659 205.312C408.659 206.016 408.099 206.592 407.411 206.592ZM406.227 216V207.728H408.563V216H406.227ZM414.666 216.192C412.202 216.192 410.138 214.208 410.138 211.856C410.138 209.504 412.202 207.536 414.666 207.536C417.114 207.536 419.162 209.504 419.162 211.856C419.162 214.208 417.114 216.192 414.666 216.192ZM414.666 214.224C415.898 214.224 416.938 213.136 416.938 211.856C416.938 210.576 415.898 209.504 414.666 209.504C413.418 209.504 412.378 210.576 412.378 211.856C412.378 213.136 413.418 214.224 414.666 214.224ZM425.527 207.536C427.319 207.536 428.599 208.864 428.599 210.736V216H426.343V211.232C426.343 210.208 425.703 209.504 424.775 209.504C423.799 209.504 423.047 210.208 423.047 211.104L423.031 211.056V216H420.695V207.728H423.031V208.768C423.527 208.016 424.455 207.536 425.527 207.536ZM440.144 211.664V209.824H445.008V214.352C443.904 215.504 442.208 216.192 440.56 216.192C437.376 216.192 434.672 213.584 434.672 210.496C434.672 207.408 437.376 204.816 440.56 204.816C442.208 204.816 443.904 205.504 445.008 206.656L443.296 208.192C442.64 207.44 441.568 206.96 440.56 206.96C438.688 206.96 437.104 208.592 437.104 210.496C437.104 212.416 438.688 214.048 440.56 214.048C441.312 214.048 442.08 213.792 442.704 213.344V211.664H440.144ZM452.418 207.728H454.754V216H452.418V214.96C451.922 215.712 450.994 216.192 449.922 216.192C448.13 216.192 446.85 214.864 446.85 212.992V207.728H449.106V212.496C449.106 213.52 449.746 214.224 450.674 214.224C451.65 214.224 452.402 213.52 452.402 212.624L452.418 212.672V207.728ZM457.926 206.592C457.206 206.592 456.646 206.016 456.646 205.312C456.646 204.656 457.206 204.064 457.926 204.064C458.614 204.064 459.174 204.656 459.174 205.312C459.174 206.016 458.614 206.592 457.926 206.592ZM456.742 216V207.728H459.078V216H456.742ZM467.294 204.816H469.63V216H467.294V214.816C466.638 215.68 465.678 216.192 464.51 216.192C462.302 216.192 460.702 214.4 460.702 211.856C460.702 209.328 462.302 207.536 464.51 207.536C465.678 207.536 466.638 208.048 467.294 208.912V204.816ZM465.182 214.224C466.414 214.224 467.294 213.248 467.294 211.856C467.294 210.48 466.414 209.504 465.182 209.504C463.886 209.504 462.974 210.48 462.974 211.856C462.974 213.248 463.886 214.224 465.182 214.224ZM475.584 214.128C476.24 214.128 477.04 213.824 477.488 213.392L478.976 214.912C478.24 215.68 476.816 216.192 475.6 216.192C473.136 216.192 471.216 214.384 471.216 211.84C471.216 209.344 473.056 207.536 475.472 207.536C478.064 207.536 479.584 209.504 479.584 212.624H473.616C473.888 213.52 474.608 214.128 475.584 214.128ZM475.568 209.6C474.688 209.6 473.952 210.112 473.648 210.944H477.344C477.12 210.128 476.512 209.6 475.568 209.6ZM347.184 240V229.008H351.12C354.816 229.008 357.44 231.28 357.44 234.496C357.44 237.712 354.816 240 351.12 240H347.184ZM349.536 237.856H351.424C353.52 237.856 355.008 236.464 355.008 234.496C355.008 232.544 353.52 231.152 351.424 231.152H349.536V237.856ZM363.1 238.128C363.756 238.128 364.556 237.824 365.004 237.392L366.492 238.912C365.756 239.68 364.332 240.192 363.116 240.192C360.652 240.192 358.732 238.384 358.732 235.84C358.732 233.344 360.572 231.536 362.988 231.536C365.58 231.536 367.1 233.504 367.1 236.624H361.132C361.404 237.52 362.124 238.128 363.1 238.128ZM363.084 233.6C362.204 233.6 361.468 234.112 361.164 234.944H364.86C364.636 234.128 364.028 233.6 363.084 233.6ZM371.448 240L367.864 231.728H370.312L372.536 237.312L374.712 231.728H377.144L373.608 240H371.448ZM381.772 238.128C382.428 238.128 383.228 237.824 383.676 237.392L385.164 238.912C384.428 239.68 383.004 240.192 381.788 240.192C379.324 240.192 377.404 238.384 377.404 235.84C377.404 233.344 379.244 231.536 381.66 231.536C384.252 231.536 385.772 233.504 385.772 236.624H379.804C380.076 237.52 380.796 238.128 381.772 238.128ZM381.756 233.6C380.876 233.6 380.14 234.112 379.836 234.944H383.532C383.308 234.128 382.7 233.6 381.756 233.6ZM387.352 240V228.816H389.688V240H387.352ZM395.791 240.192C393.327 240.192 391.263 238.208 391.263 235.856C391.263 233.504 393.327 231.536 395.791 231.536C398.239 231.536 400.287 233.504 400.287 235.856C400.287 238.208 398.239 240.192 395.791 240.192ZM395.791 238.224C397.023 238.224 398.063 237.136 398.063 235.856C398.063 234.576 397.023 233.504 395.791 233.504C394.543 233.504 393.503 234.576 393.503 235.856C393.503 237.136 394.543 238.224 395.791 238.224ZM406.972 231.536C409.18 231.536 410.78 233.328 410.78 235.856C410.78 238.4 409.18 240.192 406.972 240.192C405.82 240.192 404.86 239.696 404.204 238.832V242.752H401.868V231.728H404.204V232.88C404.86 232.032 405.82 231.536 406.972 231.536ZM406.3 238.224C407.596 238.224 408.508 237.248 408.508 235.856C408.508 234.48 407.596 233.504 406.3 233.504C405.164 233.504 404.332 234.336 404.204 235.536V236.176C404.332 237.392 405.164 238.224 406.3 238.224ZM422.27 231.536C423.998 231.536 425.326 232.864 425.326 234.736V240.016H423.086V235.136C423.086 234.176 422.478 233.504 421.614 233.504C420.686 233.504 420.014 234.128 420.014 235.008V240.016H417.774V235.136C417.774 234.176 417.166 233.504 416.318 233.504C415.374 233.504 414.718 234.128 414.718 235.008V240H412.382V231.728H414.718V232.816C415.118 232.032 415.934 231.536 416.958 231.536C418.094 231.536 419.07 232.112 419.582 233.04C420.014 232.128 421.038 231.536 422.27 231.536ZM431.194 238.128C431.85 238.128 432.65 237.824 433.098 237.392L434.586 238.912C433.85 239.68 432.426 240.192 431.21 240.192C428.746 240.192 426.826 238.384 426.826 235.84C426.826 233.344 428.666 231.536 431.082 231.536C433.674 231.536 435.194 233.504 435.194 236.624H429.226C429.498 237.52 430.218 238.128 431.194 238.128ZM431.178 233.6C430.298 233.6 429.562 234.112 429.258 234.944H432.954C432.73 234.128 432.122 233.6 431.178 233.6ZM441.558 231.536C443.35 231.536 444.63 232.864 444.63 234.736V240H442.374V235.232C442.374 234.208 441.734 233.504 440.806 233.504C439.83 233.504 439.078 234.208 439.078 235.104L439.062 235.056V240H436.726V231.728H439.062V232.768C439.558 232.016 440.486 231.536 441.558 231.536ZM450.954 237.952L451.514 239.472C451.034 239.904 450.282 240.192 449.61 240.192C448.154 240.192 447.13 239.152 447.13 237.664V233.616H445.994V231.728H447.13V229.456H449.37V231.728H451.162V233.616H449.37V237.296C449.37 237.84 449.722 238.224 450.154 238.224C450.474 238.224 450.794 238.112 450.954 237.952Z" fill="#374157"/>
<path d="M175.448 452.008H177.8V463H175.448V458.456H170.44V463H168.088V452.008H170.44V456.328H175.448V452.008ZM185.387 463.192C182.235 463.192 179.547 460.584 179.547 457.496C179.547 454.408 182.235 451.816 185.387 451.816C187.051 451.816 188.587 452.52 189.659 453.656L187.947 455.192C187.307 454.456 186.395 453.96 185.387 453.96C183.547 453.96 181.979 455.592 181.979 457.496C181.979 459.416 183.547 461.048 185.387 461.048C186.395 461.048 187.307 460.552 187.947 459.816L189.659 461.352C188.587 462.472 187.051 463.192 185.387 463.192ZM191.119 463V452.008H196.063C198.447 452.008 200.207 453.544 200.207 455.72C200.207 457.896 198.447 459.432 196.063 459.432H193.471V463H191.119ZM193.471 457.272H195.807C196.975 457.272 197.775 456.664 197.775 455.72C197.775 454.776 196.975 454.168 195.807 454.168H193.471V457.272ZM209.783 454.536C211.943 454.536 213.415 455.896 213.415 458.056V463H211.159V462.168C210.567 462.84 209.623 463.192 208.727 463.192C206.967 463.192 205.607 462.136 205.607 460.552C205.607 458.92 207.127 457.8 209.047 457.8C209.719 457.8 210.455 457.944 211.159 458.216V458.056C211.159 457.176 210.615 456.408 209.255 456.408C208.487 456.408 207.767 456.664 207.111 457L206.327 455.448C207.495 454.856 208.631 454.536 209.783 454.536ZM209.255 461.576C210.151 461.576 210.999 461.16 211.159 460.392V459.624C210.631 459.432 210.023 459.32 209.383 459.32C208.535 459.32 207.863 459.816 207.863 460.488C207.863 461.16 208.455 461.576 209.255 461.576ZM220.167 454.536C221.959 454.536 223.239 455.864 223.239 457.736V463H220.983V458.232C220.983 457.208 220.343 456.504 219.415 456.504C218.439 456.504 217.687 457.208 217.687 458.104L217.671 458.056V463H215.335V454.728H217.671V455.768C218.167 455.016 219.095 454.536 220.167 454.536ZM231.388 451.816H233.724V463H231.388V461.816C230.732 462.68 229.772 463.192 228.604 463.192C226.396 463.192 224.796 461.4 224.796 458.856C224.796 456.328 226.396 454.536 228.604 454.536C229.772 454.536 230.732 455.048 231.388 455.912V451.816ZM229.276 461.224C230.508 461.224 231.388 460.248 231.388 458.856C231.388 457.48 230.508 456.504 229.276 456.504C227.98 456.504 227.068 457.48 227.068 458.856C227.068 460.248 227.98 461.224 229.276 461.224ZM244.307 463.192C241.843 463.192 239.779 461.208 239.779 458.856C239.779 456.504 241.843 454.536 244.307 454.536C246.755 454.536 248.803 456.504 248.803 458.856C248.803 461.208 246.755 463.192 244.307 463.192ZM244.307 461.224C245.539 461.224 246.579 460.136 246.579 458.856C246.579 457.576 245.539 456.504 244.307 456.504C243.059 456.504 242.019 457.576 242.019 458.856C242.019 460.136 243.059 461.224 244.307 461.224ZM254.735 460.952L255.295 462.472C254.815 462.904 254.063 463.192 253.391 463.192C251.935 463.192 250.911 462.152 250.911 460.664V456.616H249.775V454.728H250.911V452.456H253.151V454.728H254.943V456.616H253.151V460.296C253.151 460.84 253.503 461.224 253.935 461.224C254.255 461.224 254.575 461.112 254.735 460.952ZM261.542 454.536C263.334 454.536 264.614 455.864 264.614 457.736V463H262.358V458.232C262.358 457.208 261.718 456.504 260.79 456.504C259.814 456.504 259.062 457.208 259.062 458.104V463H256.726V451.816H259.062V455.736C259.574 455.016 260.486 454.536 261.542 454.536ZM270.491 461.128C271.147 461.128 271.947 460.824 272.395 460.392L273.883 461.912C273.147 462.68 271.723 463.192 270.507 463.192C268.043 463.192 266.123 461.384 266.123 458.84C266.123 456.344 267.963 454.536 270.379 454.536C272.971 454.536 274.491 456.504 274.491 459.624H268.523C268.795 460.52 269.515 461.128 270.491 461.128ZM270.475 456.6C269.595 456.6 268.859 457.112 268.555 457.944H272.251C272.027 457.128 271.419 456.6 270.475 456.6ZM278.407 456.264C278.951 455.192 279.975 454.536 281.239 454.536V456.504C279.511 456.504 278.407 457.496 278.407 459.048V463H276.071V454.728H278.407V456.264ZM171.128 487.192C169.8 487.192 168.392 486.744 167.4 485.944L168.408 484.328C169.144 484.856 170.072 485.256 171.176 485.256C171.8 485.256 172.248 485 172.248 484.632C172.248 484.12 171.64 483.96 170.792 483.736C169.096 483.32 167.784 482.856 167.768 481.224C167.752 479.656 169.048 478.536 171 478.536C172.184 478.536 173.352 478.952 174.264 479.56L173.32 481.224C172.568 480.76 171.704 480.488 171 480.488C170.424 480.488 170.024 480.696 170.024 480.984C170.024 481.432 170.36 481.56 171.48 481.864C172.904 482.232 174.488 482.712 174.488 484.52C174.488 486.152 173.16 487.192 171.128 487.192ZM180.407 484.952L180.967 486.472C180.487 486.904 179.735 487.192 179.063 487.192C177.607 487.192 176.583 486.152 176.583 484.664V480.616H175.447V478.728H176.583V476.456H178.823V478.728H180.615V480.616H178.823V484.296C178.823 484.84 179.175 485.224 179.607 485.224C179.927 485.224 180.247 485.112 180.407 484.952ZM186.126 478.536C188.286 478.536 189.758 479.896 189.758 482.056V487H187.502V486.168C186.91 486.84 185.966 487.192 185.07 487.192C183.31 487.192 181.95 486.136 181.95 484.552C181.95 482.92 183.47 481.8 185.39 481.8C186.062 481.8 186.798 481.944 187.502 482.216V482.056C187.502 481.176 186.958 480.408 185.598 480.408C184.83 480.408 184.11 480.664 183.454 481L182.67 479.448C183.838 478.856 184.974 478.536 186.126 478.536ZM185.598 485.576C186.494 485.576 187.342 485.16 187.502 484.392V483.624C186.974 483.432 186.366 483.32 185.726 483.32C184.878 483.32 184.206 483.816 184.206 484.488C184.206 485.16 184.798 485.576 185.598 485.576ZM199.775 478.728L196.559 482.392L199.743 487H197.055L195.007 483.896L194.015 484.968V487H191.679V475.816H194.015V482.296L197.087 478.728H199.775ZM204.772 485.128C205.428 485.128 206.228 484.824 206.676 484.392L208.164 485.912C207.428 486.68 206.004 487.192 204.788 487.192C202.324 487.192 200.404 485.384 200.404 482.84C200.404 480.344 202.244 478.536 204.66 478.536C207.252 478.536 208.772 480.504 208.772 483.624H202.804C203.076 484.52 203.796 485.128 204.772 485.128ZM204.756 480.6C203.876 480.6 203.14 481.112 202.836 481.944H206.532C206.308 481.128 205.7 480.6 204.756 480.6ZM215.136 478.536C216.928 478.536 218.208 479.864 218.208 481.736V487H215.952V482.232C215.952 481.208 215.312 480.504 214.384 480.504C213.408 480.504 212.656 481.208 212.656 482.104V487H210.32V475.816H212.656V479.736C213.168 479.016 214.08 478.536 215.136 478.536ZM224.244 487.192C221.78 487.192 219.716 485.208 219.716 482.856C219.716 480.504 221.78 478.536 224.244 478.536C226.692 478.536 228.74 480.504 228.74 482.856C228.74 485.208 226.692 487.192 224.244 487.192ZM224.244 485.224C225.476 485.224 226.516 484.136 226.516 482.856C226.516 481.576 225.476 480.504 224.244 480.504C222.996 480.504 221.956 481.576 221.956 482.856C221.956 484.136 222.996 485.224 224.244 485.224ZM230.321 487V475.816H232.657V487H230.321ZM240.872 475.816H243.208V487H240.872V485.816C240.216 486.68 239.256 487.192 238.088 487.192C235.88 487.192 234.28 485.4 234.28 482.856C234.28 480.328 235.88 478.536 238.088 478.536C239.256 478.536 240.216 479.048 240.872 479.912V475.816ZM238.76 485.224C239.992 485.224 240.872 484.248 240.872 482.856C240.872 481.48 239.992 480.504 238.76 480.504C237.464 480.504 236.552 481.48 236.552 482.856C236.552 484.248 237.464 485.224 238.76 485.224ZM249.162 485.128C249.818 485.128 250.618 484.824 251.066 484.392L252.554 485.912C251.818 486.68 250.394 487.192 249.178 487.192C246.714 487.192 244.794 485.384 244.794 482.84C244.794 480.344 246.634 478.536 249.05 478.536C251.642 478.536 253.162 480.504 253.162 483.624H247.194C247.466 484.52 248.186 485.128 249.162 485.128ZM249.146 480.6C248.266 480.6 247.53 481.112 247.226 481.944H250.922C250.698 481.128 250.09 480.6 249.146 480.6ZM257.079 480.264C257.623 479.192 258.647 478.536 259.911 478.536V480.504C258.183 480.504 257.079 481.496 257.079 483.048V487H254.743V478.728H257.079V480.264ZM168.12 511V500.008H170.488V511H168.12ZM177.402 502.536C179.194 502.536 180.474 503.864 180.474 505.736V511H178.218V506.232C178.218 505.208 177.578 504.504 176.65 504.504C175.674 504.504 174.922 505.208 174.922 506.104L174.906 506.056V511H172.57V502.728H174.906V503.768C175.402 503.016 176.33 502.536 177.402 502.536ZM186.798 508.952L187.358 510.472C186.878 510.904 186.126 511.192 185.454 511.192C183.998 511.192 182.974 510.152 182.974 508.664V504.616H181.838V502.728H182.974V500.456H185.214V502.728H187.006V504.616H185.214V508.296C185.214 508.84 185.566 509.224 185.998 509.224C186.318 509.224 186.638 509.112 186.798 508.952ZM192.725 509.128C193.381 509.128 194.181 508.824 194.629 508.392L196.117 509.912C195.381 510.68 193.957 511.192 192.741 511.192C190.277 511.192 188.357 509.384 188.357 506.84C188.357 504.344 190.197 502.536 192.613 502.536C195.205 502.536 196.725 504.504 196.725 507.624H190.757C191.029 508.52 191.749 509.128 192.725 509.128ZM192.709 504.6C191.829 504.6 191.093 505.112 190.789 505.944H194.485C194.261 505.128 193.653 504.6 192.709 504.6ZM200.641 504.264C201.185 503.192 202.209 502.536 203.473 502.536V504.504C201.745 504.504 200.641 505.496 200.641 507.048V511H198.305V502.728H200.641V504.264ZM207.589 511L204.005 502.728H206.453L208.677 508.312L210.853 502.728H213.285L209.749 511H207.589ZM215.692 501.592C214.972 501.592 214.412 501.016 214.412 500.312C214.412 499.656 214.972 499.064 215.692 499.064C216.38 499.064 216.94 499.656 216.94 500.312C216.94 501.016 216.38 501.592 215.692 501.592ZM214.508 511V502.728H216.844V511H214.508ZM222.787 509.128C223.443 509.128 224.243 508.824 224.691 508.392L226.179 509.912C225.443 510.68 224.019 511.192 222.803 511.192C220.339 511.192 218.419 509.384 218.419 506.84C218.419 504.344 220.259 502.536 222.675 502.536C225.267 502.536 226.787 504.504 226.787 507.624H220.819C221.091 508.52 221.811 509.128 222.787 509.128ZM222.771 504.6C221.891 504.6 221.155 505.112 220.851 505.944H224.547C224.323 505.128 223.715 504.6 222.771 504.6ZM230.057 511L227.241 502.728H229.529L231.097 507.88L232.729 502.728H234.665L236.297 507.88L237.865 502.728H240.153L237.337 511H235.241L233.705 505.8L232.153 511H230.057ZM242.598 501.592C241.878 501.592 241.318 501.016 241.318 500.312C241.318 499.656 241.878 499.064 242.598 499.064C243.286 499.064 243.846 499.656 243.846 500.312C243.846 501.016 243.286 501.592 242.598 501.592ZM241.414 511V502.728H243.75V511H241.414ZM250.574 502.536C252.366 502.536 253.646 503.864 253.646 505.736V511H251.39V506.232C251.39 505.208 250.75 504.504 249.822 504.504C248.846 504.504 248.094 505.208 248.094 506.104L248.078 506.056V511H245.742V502.728H248.078V503.768C248.574 503.016 249.502 502.536 250.574 502.536ZM261.602 502.728H263.954V510.12C263.954 512.248 262.114 513.752 259.506 513.752C258.05 513.752 256.674 513.288 255.858 512.648L256.674 511C257.218 511.48 258.178 511.784 259.138 511.784C260.642 511.784 261.602 511.096 261.602 510.024V509.112C260.946 509.912 259.954 510.392 258.866 510.392C256.786 510.392 255.202 508.76 255.202 506.456C255.202 504.152 256.786 502.536 258.866 502.536C259.986 502.536 261.042 503.064 261.602 503.848V502.728ZM259.602 508.424C260.77 508.424 261.602 507.608 261.602 506.456C261.602 505.304 260.77 504.504 259.602 504.504C258.434 504.504 257.602 505.304 257.602 506.456C257.602 507.608 258.434 508.424 259.602 508.424ZM267.144 513.336L266.312 512.696C266.808 512.248 267.144 511.704 267.288 511.192C266.52 511.192 265.88 510.536 265.88 509.752C265.88 508.952 266.52 508.28 267.32 508.28C268.216 508.28 268.84 509.112 268.84 510.28C268.84 511.224 268.296 512.232 267.144 513.336ZM277.933 502.28V502.728H279.725V504.616H277.933V511H275.693V504.616H274.557V502.728H275.693V502.008C275.693 500.52 276.717 499.48 278.173 499.48C278.845 499.48 279.597 499.768 280.077 500.2L279.517 501.624C279.357 501.464 279.037 501.352 278.717 501.352C278.285 501.352 277.933 501.736 277.933 502.28ZM285.291 511.192C282.827 511.192 280.763 509.208 280.763 506.856C280.763 504.504 282.827 502.536 285.291 502.536C287.739 502.536 289.787 504.504 289.787 506.856C289.787 509.208 287.739 511.192 285.291 511.192ZM285.291 509.224C286.523 509.224 287.563 508.136 287.563 506.856C287.563 505.576 286.523 504.504 285.291 504.504C284.043 504.504 283.003 505.576 283.003 506.856C283.003 508.136 284.043 509.224 285.291 509.224ZM293.704 504.264C294.248 503.192 295.272 502.536 296.536 502.536V504.504C294.808 504.504 293.704 505.496 293.704 507.048V511H291.368V502.728H293.704V504.264ZM174.2 526.728H176.536V537.752H174.2V533.816C173.544 534.68 172.584 535.192 171.416 535.192C169.208 535.192 167.608 533.4 167.608 530.856C167.608 528.328 169.208 526.536 171.416 526.536C172.584 526.536 173.544 527.048 174.2 527.912V526.728ZM172.088 533.224C173.32 533.224 174.2 532.248 174.2 530.856C174.2 529.48 173.32 528.504 172.088 528.504C170.792 528.504 169.88 529.48 169.88 530.856C169.88 532.248 170.792 533.224 172.088 533.224ZM184.075 526.728H186.411V535H184.075V533.96C183.579 534.712 182.651 535.192 181.579 535.192C179.787 535.192 178.507 533.864 178.507 531.992V526.728H180.763V531.496C180.763 532.52 181.403 533.224 182.331 533.224C183.307 533.224 184.059 532.52 184.059 531.624L184.075 531.672V526.728ZM192.111 526.536C194.271 526.536 195.743 527.896 195.743 530.056V535H193.487V534.168C192.895 534.84 191.951 535.192 191.055 535.192C189.295 535.192 187.935 534.136 187.935 532.552C187.935 530.92 189.455 529.8 191.375 529.8C192.047 529.8 192.783 529.944 193.487 530.216V530.056C193.487 529.176 192.943 528.408 191.583 528.408C190.815 528.408 190.095 528.664 189.439 529L188.655 527.448C189.823 526.856 190.959 526.536 192.111 526.536ZM191.583 533.576C192.479 533.576 193.327 533.16 193.487 532.392V531.624C192.959 531.432 192.351 531.32 191.711 531.32C190.863 531.32 190.191 531.816 190.191 532.488C190.191 533.16 190.783 533.576 191.583 533.576ZM197.712 535V523.816H200.048V535H197.712ZM203.255 525.592C202.535 525.592 201.975 525.016 201.975 524.312C201.975 523.656 202.535 523.064 203.255 523.064C203.943 523.064 204.503 523.656 204.503 524.312C204.503 525.016 203.943 525.592 203.255 525.592ZM202.071 535V526.728H204.407V535H202.071ZM210.798 532.952L211.358 534.472C210.878 534.904 210.126 535.192 209.454 535.192C207.998 535.192 206.974 534.152 206.974 532.664V528.616H205.838V526.728H206.974V524.456H209.214V526.728H211.006V528.616H209.214V532.296C209.214 532.84 209.566 533.224 209.998 533.224C210.318 533.224 210.638 533.112 210.798 532.952ZM216.517 526.536C218.677 526.536 220.149 527.896 220.149 530.056V535H217.893V534.168C217.301 534.84 216.357 535.192 215.461 535.192C213.701 535.192 212.341 534.136 212.341 532.552C212.341 530.92 213.861 529.8 215.781 529.8C216.453 529.8 217.189 529.944 217.893 530.216V530.056C217.893 529.176 217.349 528.408 215.989 528.408C215.221 528.408 214.501 528.664 213.845 529L213.061 527.448C214.229 526.856 215.365 526.536 216.517 526.536ZM215.989 533.576C216.885 533.576 217.733 533.16 217.893 532.392V531.624C217.365 531.432 216.757 531.32 216.117 531.32C215.269 531.32 214.597 531.816 214.597 532.488C214.597 533.16 215.189 533.576 215.989 533.576ZM226.47 532.952L227.03 534.472C226.55 534.904 225.798 535.192 225.126 535.192C223.67 535.192 222.646 534.152 222.646 532.664V528.616H221.51V526.728H222.646V524.456H224.886V526.728H226.678V528.616H224.886V532.296C224.886 532.84 225.238 533.224 225.67 533.224C225.99 533.224 226.31 533.112 226.47 532.952ZM229.661 525.592C228.941 525.592 228.381 525.016 228.381 524.312C228.381 523.656 228.941 523.064 229.661 523.064C230.349 523.064 230.909 523.656 230.909 524.312C230.909 525.016 230.349 525.592 229.661 525.592ZM228.477 535V526.728H230.813V535H228.477ZM235.62 535L232.036 526.728H234.484L236.708 532.312L238.884 526.728H241.316L237.78 535H235.62ZM245.944 533.128C246.6 533.128 247.4 532.824 247.848 532.392L249.336 533.912C248.6 534.68 247.176 535.192 245.96 535.192C243.496 535.192 241.576 533.384 241.576 530.84C241.576 528.344 243.416 526.536 245.832 526.536C248.424 526.536 249.944 528.504 249.944 531.624H243.976C244.248 532.52 244.968 533.128 245.944 533.128ZM245.928 528.6C245.048 528.6 244.312 529.112 244.008 529.944H247.704C247.48 529.128 246.872 528.6 245.928 528.6ZM261.097 526.536C263.305 526.536 264.905 528.328 264.905 530.856C264.905 533.4 263.305 535.192 261.097 535.192C259.945 535.192 258.985 534.696 258.329 533.832V535H255.993V523.816H258.329V527.88C258.985 527.032 259.945 526.536 261.097 526.536ZM260.425 533.224C261.721 533.224 262.633 532.248 262.633 530.856C262.633 529.48 261.721 528.504 260.425 528.504C259.289 528.504 258.457 529.336 258.329 530.536V531.176C258.457 532.392 259.289 533.224 260.425 533.224ZM267.723 525.592C267.003 525.592 266.443 525.016 266.443 524.312C266.443 523.656 267.003 523.064 267.723 523.064C268.411 523.064 268.971 523.656 268.971 524.312C268.971 525.016 268.411 525.592 267.723 525.592ZM266.539 535V526.728H268.875V535H266.539ZM274.979 535.192C272.515 535.192 270.451 533.208 270.451 530.856C270.451 528.504 272.515 526.536 274.979 526.536C277.427 526.536 279.475 528.504 279.475 530.856C279.475 533.208 277.427 535.192 274.979 535.192ZM274.979 533.224C276.211 533.224 277.251 532.136 277.251 530.856C277.251 529.576 276.211 528.504 274.979 528.504C273.731 528.504 272.691 529.576 272.691 530.856C272.691 532.136 273.731 533.224 274.979 533.224ZM290.895 526.536C292.623 526.536 293.951 527.864 293.951 529.736V535.016H291.711V530.136C291.711 529.176 291.103 528.504 290.239 528.504C289.311 528.504 288.639 529.128 288.639 530.008V535.016H286.399V530.136C286.399 529.176 285.791 528.504 284.943 528.504C283.999 528.504 283.343 529.128 283.343 530.008V535H281.007V526.728H283.343V527.816C283.743 527.032 284.559 526.536 285.583 526.536C286.719 526.536 287.695 527.112 288.207 528.04C288.639 527.128 289.663 526.536 290.895 526.536ZM299.819 533.128C300.475 533.128 301.275 532.824 301.723 532.392L303.211 533.912C302.475 534.68 301.051 535.192 299.835 535.192C297.371 535.192 295.451 533.384 295.451 530.84C295.451 528.344 297.291 526.536 299.707 526.536C302.299 526.536 303.819 528.504 303.819 531.624H297.851C298.123 532.52 298.843 533.128 299.819 533.128ZM299.803 528.6C298.923 528.6 298.187 529.112 297.883 529.944H301.579C301.355 529.128 300.747 528.6 299.803 528.6ZM311.575 523.816H313.911V535H311.575V533.816C310.919 534.68 309.959 535.192 308.791 535.192C306.583 535.192 304.983 533.4 304.983 530.856C304.983 528.328 306.583 526.536 308.791 526.536C309.959 526.536 310.919 527.048 311.575 527.912V523.816ZM309.463 533.224C310.695 533.224 311.575 532.248 311.575 530.856C311.575 529.48 310.695 528.504 309.463 528.504C308.167 528.504 307.255 529.48 307.255 530.856C307.255 532.248 308.167 533.224 309.463 533.224ZM317.13 525.592C316.41 525.592 315.85 525.016 315.85 524.312C315.85 523.656 316.41 523.064 317.13 523.064C317.818 523.064 318.378 523.656 318.378 524.312C318.378 525.016 317.818 525.592 317.13 525.592ZM315.946 535V526.728H318.282V535H315.946ZM324.369 535.192C321.921 535.192 319.857 533.208 319.857 530.856C319.857 528.504 321.937 526.536 324.385 526.536C325.729 526.536 326.833 527.08 327.633 527.944L326.081 529.272C325.665 528.808 325.009 528.504 324.369 528.504C323.153 528.504 322.129 529.576 322.129 530.84C322.129 532.136 323.153 533.224 324.385 533.224C325.025 533.224 325.697 532.904 326.129 532.424L327.681 533.736C326.865 534.632 325.745 535.192 324.369 535.192ZM332.783 526.536C334.943 526.536 336.415 527.896 336.415 530.056V535H334.159V534.168C333.567 534.84 332.623 535.192 331.727 535.192C329.967 535.192 328.607 534.136 328.607 532.552C328.607 530.92 330.127 529.8 332.047 529.8C332.719 529.8 333.455 529.944 334.159 530.216V530.056C334.159 529.176 333.615 528.408 332.255 528.408C331.487 528.408 330.767 528.664 330.111 529L329.327 527.448C330.495 526.856 331.631 526.536 332.783 526.536ZM332.255 533.576C333.151 533.576 333.999 533.16 334.159 532.392V531.624C333.631 531.432 333.023 531.32 332.383 531.32C331.535 531.32 330.863 531.816 330.863 532.488C330.863 533.16 331.455 533.576 332.255 533.576ZM338.383 535V523.816H340.719V535H338.383ZM170.36 552.264C170.904 551.192 171.928 550.536 173.192 550.536V552.504C171.464 552.504 170.36 553.496 170.36 555.048V559H168.024V550.728H170.36V552.264ZM178.444 557.128C179.1 557.128 179.9 556.824 180.348 556.392L181.836 557.912C181.1 558.68 179.676 559.192 178.46 559.192C175.996 559.192 174.076 557.384 174.076 554.84C174.076 552.344 175.916 550.536 178.332 550.536C180.924 550.536 182.444 552.504 182.444 555.624H176.476C176.748 556.52 177.468 557.128 178.444 557.128ZM178.428 552.6C177.548 552.6 176.812 553.112 176.508 553.944H180.204C179.98 553.128 179.372 552.6 178.428 552.6ZM187.128 559.192C185.8 559.192 184.392 558.744 183.4 557.944L184.408 556.328C185.144 556.856 186.072 557.256 187.176 557.256C187.8 557.256 188.248 557 188.248 556.632C188.248 556.12 187.64 555.96 186.792 555.736C185.096 555.32 183.784 554.856 183.768 553.224C183.752 551.656 185.048 550.536 187 550.536C188.184 550.536 189.352 550.952 190.264 551.56L189.32 553.224C188.568 552.76 187.704 552.488 187 552.488C186.424 552.488 186.024 552.696 186.024 552.984C186.024 553.432 186.36 553.56 187.48 553.864C188.904 554.232 190.488 554.712 190.488 556.52C190.488 558.152 189.16 559.192 187.128 559.192ZM195.959 557.128C196.615 557.128 197.415 556.824 197.863 556.392L199.351 557.912C198.615 558.68 197.191 559.192 195.975 559.192C193.511 559.192 191.591 557.384 191.591 554.84C191.591 552.344 193.431 550.536 195.847 550.536C198.439 550.536 199.959 552.504 199.959 555.624H193.991C194.263 556.52 194.983 557.128 195.959 557.128ZM195.943 552.6C195.063 552.6 194.327 553.112 194.023 553.944H197.719C197.495 553.128 196.887 552.6 195.943 552.6ZM205.236 550.536C207.396 550.536 208.868 551.896 208.868 554.056V559H206.612V558.168C206.02 558.84 205.076 559.192 204.18 559.192C202.42 559.192 201.06 558.136 201.06 556.552C201.06 554.92 202.58 553.8 204.5 553.8C205.172 553.8 205.908 553.944 206.612 554.216V554.056C206.612 553.176 206.068 552.408 204.708 552.408C203.94 552.408 203.22 552.664 202.564 553L201.78 551.448C202.948 550.856 204.084 550.536 205.236 550.536ZM204.708 557.576C205.604 557.576 206.452 557.16 206.612 556.392V555.624C206.084 555.432 205.476 555.32 204.836 555.32C203.988 555.32 203.316 555.816 203.316 556.488C203.316 557.16 203.908 557.576 204.708 557.576ZM213.173 552.264C213.717 551.192 214.741 550.536 216.005 550.536V552.504C214.277 552.504 213.173 553.496 213.173 555.048V559H210.837V550.728H213.173V552.264ZM221.4 559.192C218.952 559.192 216.888 557.208 216.888 554.856C216.888 552.504 218.968 550.536 221.416 550.536C222.76 550.536 223.864 551.08 224.664 551.944L223.112 553.272C222.696 552.808 222.04 552.504 221.4 552.504C220.184 552.504 219.16 553.576 219.16 554.84C219.16 556.136 220.184 557.224 221.416 557.224C222.056 557.224 222.728 556.904 223.16 556.424L224.712 557.736C223.896 558.632 222.776 559.192 221.4 559.192ZM230.902 550.536C232.694 550.536 233.974 551.864 233.974 553.736V559H231.718V554.232C231.718 553.208 231.078 552.504 230.15 552.504C229.174 552.504 228.422 553.208 228.422 554.104V559H226.086V547.816H228.422V551.736C228.934 551.016 229.846 550.536 230.902 550.536Z" fill="white"/>
<path d="M503.248 517.192C501.344 517.192 499.648 516.552 498.368 515.368L499.728 513.752C500.768 514.648 501.952 515.192 503.344 515.192C504.528 515.192 505.136 514.648 505.136 513.96C505.136 513.176 504.496 512.936 502.816 512.552C500.496 512.024 498.848 511.368 498.848 509.24C498.848 507.208 500.512 505.816 502.912 505.816C504.704 505.816 506.096 506.376 507.216 507.336L505.984 509.032C505.008 508.248 503.904 507.816 502.848 507.816C501.84 507.816 501.232 508.344 501.232 509C501.232 509.8 501.888 510.056 503.584 510.44C505.952 510.968 507.52 511.672 507.52 513.704C507.52 515.8 505.936 517.192 503.248 517.192ZM511.037 519.88C510.349 519.88 509.517 519.672 508.957 519.368L509.453 517.768C509.853 517.992 510.269 518.136 510.541 518.136C510.989 518.136 511.341 517.992 511.517 517.688L511.805 517.08L508.365 508.728H510.781L512.957 514.536L515.021 508.728H517.405L514.013 517.416C513.389 519.032 512.333 519.88 511.037 519.88ZM523.542 508.536C525.334 508.536 526.614 509.864 526.614 511.736V517H524.358V512.232C524.358 511.208 523.718 510.504 522.79 510.504C521.814 510.504 521.062 511.208 521.062 512.104L521.046 512.056V517H518.71V508.728H521.046V509.768C521.542 509.016 522.47 508.536 523.542 508.536ZM532.939 514.952L533.499 516.472C533.019 516.904 532.266 517.192 531.595 517.192C530.139 517.192 529.115 516.152 529.115 514.664V510.616H527.979V508.728H529.115V506.456H531.355V508.728H533.147V510.616H531.355V514.296C531.355 514.84 531.707 515.224 532.139 515.224C532.459 515.224 532.779 515.112 532.939 514.952ZM539.746 508.536C541.538 508.536 542.818 509.864 542.818 511.736V517H540.562V512.232C540.562 511.208 539.922 510.504 538.994 510.504C538.018 510.504 537.266 511.208 537.266 512.104V517H534.93V505.816H537.266V509.736C537.778 509.016 538.69 508.536 539.746 508.536ZM548.694 515.128C549.35 515.128 550.15 514.824 550.598 514.392L552.086 515.912C551.35 516.68 549.926 517.192 548.71 517.192C546.246 517.192 544.326 515.384 544.326 512.84C544.326 510.344 546.166 508.536 548.582 508.536C551.174 508.536 552.694 510.504 552.694 513.624H546.726C546.998 514.52 547.718 515.128 548.694 515.128ZM548.678 510.6C547.798 510.6 547.062 511.112 546.758 511.944H550.454C550.23 511.128 549.622 510.6 548.678 510.6ZM557.378 517.192C556.05 517.192 554.642 516.744 553.65 515.944L554.658 514.328C555.394 514.856 556.322 515.256 557.426 515.256C558.05 515.256 558.498 515 558.498 514.632C558.498 514.12 557.89 513.96 557.042 513.736C555.346 513.32 554.034 512.856 554.018 511.224C554.002 509.656 555.298 508.536 557.25 508.536C558.434 508.536 559.602 508.952 560.514 509.56L559.57 511.224C558.818 510.76 557.954 510.488 557.25 510.488C556.674 510.488 556.274 510.696 556.274 510.984C556.274 511.432 556.61 511.56 557.73 511.864C559.154 512.232 560.738 512.712 560.738 514.52C560.738 516.152 559.41 517.192 557.378 517.192ZM563.473 507.592C562.753 507.592 562.193 507.016 562.193 506.312C562.193 505.656 562.753 505.064 563.473 505.064C564.161 505.064 564.721 505.656 564.721 506.312C564.721 507.016 564.161 507.592 563.473 507.592ZM562.289 517V508.728H564.625V517H562.289ZM566.297 517V515.352L570.457 510.712H566.409V508.728H573.497V510.376L569.337 515.016H573.529V517H566.297ZM576.348 507.592C575.628 507.592 575.068 507.016 575.068 506.312C575.068 505.656 575.628 505.064 576.348 505.064C577.036 505.064 577.596 505.656 577.596 506.312C577.596 507.016 577.036 507.592 576.348 507.592ZM575.164 517V508.728H577.5V517H575.164ZM584.324 508.536C586.116 508.536 587.396 509.864 587.396 511.736V517H585.14V512.232C585.14 511.208 584.5 510.504 583.572 510.504C582.596 510.504 581.844 511.208 581.844 512.104L581.828 512.056V517H579.492V508.728H581.828V509.768C582.324 509.016 583.252 508.536 584.324 508.536ZM595.352 508.728H597.704V516.12C597.704 518.248 595.864 519.752 593.256 519.752C591.8 519.752 590.424 519.288 589.608 518.648L590.424 517C590.968 517.48 591.928 517.784 592.888 517.784C594.392 517.784 595.352 517.096 595.352 516.024V515.112C594.696 515.912 593.704 516.392 592.616 516.392C590.536 516.392 588.952 514.76 588.952 512.456C588.952 510.152 590.536 508.536 592.616 508.536C593.736 508.536 594.792 509.064 595.352 509.848V508.728ZM593.352 514.424C594.52 514.424 595.352 513.608 595.352 512.456C595.352 511.304 594.52 510.504 593.352 510.504C592.184 510.504 591.352 511.304 591.352 512.456C591.352 513.608 592.184 514.424 593.352 514.424ZM510.336 535.496C510.336 536.68 509.952 537.784 509.296 538.712L510.32 539.608L509.12 541L508 540.024C507.024 540.76 505.808 541.192 504.496 541.192C501.344 541.192 498.656 538.584 498.656 535.496C498.656 532.408 501.344 529.816 504.496 529.816C507.68 529.816 510.336 532.408 510.336 535.496ZM504.496 539.048C505.136 539.048 505.744 538.856 506.256 538.52L504.976 537.4L506.176 536.008L507.504 537.16C507.776 536.664 507.92 536.088 507.92 535.496C507.92 533.592 506.352 531.96 504.496 531.96C502.656 531.96 501.088 533.592 501.088 535.496C501.088 537.416 502.656 539.048 504.496 539.048ZM517.496 532.728H519.832V541H517.496V539.96C517 540.712 516.072 541.192 515 541.192C513.208 541.192 511.928 539.864 511.928 537.992V532.728H514.184V537.496C514.184 538.52 514.824 539.224 515.752 539.224C516.728 539.224 517.48 538.52 517.48 537.624L517.496 537.672V532.728ZM525.533 532.536C527.693 532.536 529.165 533.896 529.165 536.056V541H526.909V540.168C526.317 540.84 525.373 541.192 524.477 541.192C522.717 541.192 521.357 540.136 521.357 538.552C521.357 536.92 522.877 535.8 524.797 535.8C525.469 535.8 526.205 535.944 526.909 536.216V536.056C526.909 535.176 526.365 534.408 525.005 534.408C524.237 534.408 523.517 534.664 522.861 535L522.077 533.448C523.245 532.856 524.381 532.536 525.533 532.536ZM525.005 539.576C525.901 539.576 526.749 539.16 526.909 538.392V537.624C526.381 537.432 525.773 537.32 525.133 537.32C524.285 537.32 523.613 537.816 523.613 538.488C523.613 539.16 524.205 539.576 525.005 539.576ZM531.133 541V529.816H533.469V541H531.133ZM536.676 531.592C535.956 531.592 535.396 531.016 535.396 530.312C535.396 529.656 535.956 529.064 536.676 529.064C537.364 529.064 537.924 529.656 537.924 530.312C537.924 531.016 537.364 531.592 536.676 531.592ZM535.492 541V532.728H537.828V541H535.492ZM544.22 538.952L544.78 540.472C544.3 540.904 543.548 541.192 542.876 541.192C541.42 541.192 540.396 540.152 540.396 538.664V534.616H539.26V532.728H540.396V530.456H542.636V532.728H544.428V534.616H542.636V538.296C542.636 538.84 542.988 539.224 543.42 539.224C543.74 539.224 544.06 539.112 544.22 538.952ZM549.939 532.536C552.099 532.536 553.571 533.896 553.571 536.056V541H551.315V540.168C550.723 540.84 549.779 541.192 548.883 541.192C547.123 541.192 545.763 540.136 545.763 538.552C545.763 536.92 547.283 535.8 549.203 535.8C549.875 535.8 550.611 535.944 551.315 536.216V536.056C551.315 535.176 550.771 534.408 549.411 534.408C548.643 534.408 547.923 534.664 547.267 535L546.483 533.448C547.651 532.856 548.787 532.536 549.939 532.536ZM549.411 539.576C550.307 539.576 551.155 539.16 551.315 538.392V537.624C550.787 537.432 550.179 537.32 549.539 537.32C548.691 537.32 548.019 537.816 548.019 538.488C548.019 539.16 548.611 539.576 549.411 539.576ZM559.892 538.952L560.452 540.472C559.972 540.904 559.22 541.192 558.548 541.192C557.092 541.192 556.068 540.152 556.068 538.664V534.616H554.932V532.728H556.068V530.456H558.308V532.728H560.1V534.616H558.308V538.296C558.308 538.84 558.66 539.224 559.092 539.224C559.412 539.224 559.732 539.112 559.892 538.952ZM563.083 531.592C562.363 531.592 561.803 531.016 561.803 530.312C561.803 529.656 562.363 529.064 563.083 529.064C563.771 529.064 564.331 529.656 564.331 530.312C564.331 531.016 563.771 531.592 563.083 531.592ZM561.899 541V532.728H564.235V541H561.899ZM569.042 541L565.458 532.728H567.906L570.13 538.312L572.306 532.728H574.738L571.202 541H569.042ZM579.366 539.128C580.022 539.128 580.822 538.824 581.27 538.392L582.758 539.912C582.022 540.68 580.598 541.192 579.382 541.192C576.918 541.192 574.998 539.384 574.998 536.84C574.998 534.344 576.838 532.536 579.254 532.536C581.846 532.536 583.366 534.504 583.366 537.624H577.398C577.67 538.52 578.39 539.128 579.366 539.128ZM579.35 534.6C578.47 534.6 577.734 535.112 577.43 535.944H581.126C580.902 535.128 580.294 534.6 579.35 534.6ZM589.575 541V530.008H593.511C597.207 530.008 599.831 532.28 599.831 535.496C599.831 538.712 597.207 541 593.511 541H589.575ZM591.927 538.856H593.815C595.911 538.856 597.399 537.464 597.399 535.496C597.399 533.544 595.911 532.152 593.815 532.152H591.927V538.856ZM605.283 532.536C607.443 532.536 608.915 533.896 608.915 536.056V541H606.659V540.168C606.067 540.84 605.123 541.192 604.227 541.192C602.467 541.192 601.107 540.136 601.107 538.552C601.107 536.92 602.627 535.8 604.547 535.8C605.219 535.8 605.955 535.944 606.659 536.216V536.056C606.659 535.176 606.115 534.408 604.755 534.408C603.987 534.408 603.267 534.664 602.611 535L601.827 533.448C602.995 532.856 604.131 532.536 605.283 532.536ZM604.755 539.576C605.651 539.576 606.499 539.16 606.659 538.392V537.624C606.131 537.432 605.523 537.32 604.883 537.32C604.035 537.32 603.363 537.816 603.363 538.488C603.363 539.16 603.955 539.576 604.755 539.576ZM615.235 538.952L615.795 540.472C615.315 540.904 614.563 541.192 613.891 541.192C612.435 541.192 611.411 540.152 611.411 538.664V534.616H610.275V532.728H611.411V530.456H613.651V532.728H615.443V534.616H613.651V538.296C613.651 538.84 614.003 539.224 614.435 539.224C614.755 539.224 615.075 539.112 615.235 538.952ZM620.954 532.536C623.114 532.536 624.586 533.896 624.586 536.056V541H622.33V540.168C621.738 540.84 620.794 541.192 619.898 541.192C618.138 541.192 616.778 540.136 616.778 538.552C616.778 536.92 618.298 535.8 620.218 535.8C620.89 535.8 621.626 535.944 622.33 536.216V536.056C622.33 535.176 621.786 534.408 620.426 534.408C619.658 534.408 618.938 534.664 618.282 535L617.498 533.448C618.666 532.856 619.802 532.536 620.954 532.536ZM620.426 539.576C621.322 539.576 622.17 539.16 622.33 538.392V537.624C621.802 537.432 621.194 537.32 620.554 537.32C619.706 537.32 619.034 537.816 619.034 538.488C619.034 539.16 619.626 539.576 620.426 539.576ZM640.432 540.392L638.512 541.256L637.344 540.04C636.432 540.776 635.392 541.192 634.144 541.192C632.032 541.192 630.448 540.008 630.448 538.008C630.448 536.568 631.152 535.656 632.832 534.904C632.256 534.056 632.048 533.48 632.048 532.664C632.048 531.128 633.424 529.864 635.168 529.864C636.96 529.864 638.272 531.064 638.272 532.648C638.272 533.88 637.504 534.552 635.76 535.352C636.24 535.912 636.784 536.52 637.456 537.24C637.872 536.632 638.24 535.944 638.528 535.224L640.224 536.024C639.744 536.984 639.248 537.848 638.704 538.568L640.432 540.392ZM635.2 531.544C634.56 531.544 634.048 532.008 634.048 532.664C634.048 533.176 634.304 533.592 634.752 534.152C635.824 533.72 636.256 533.384 636.256 532.664C636.256 532.024 635.824 531.544 635.2 531.544ZM634.432 539.416C635.008 539.416 635.568 539.16 636.112 538.744C635.136 537.72 634.416 536.904 633.856 536.248C633.104 536.696 632.768 537.208 632.768 537.848C632.768 538.824 633.52 539.416 634.432 539.416ZM508.384 565H505.696L503.184 561.432H501.44V565H499.088V554.008H504.032C506.416 554.008 508.176 555.544 508.176 557.72C508.176 559.352 507.184 560.632 505.68 561.16L508.384 565ZM501.44 556.168V559.272H503.776C504.944 559.272 505.744 558.664 505.744 557.72C505.744 556.776 504.944 556.168 503.776 556.168H501.44ZM513.772 563.128C514.428 563.128 515.228 562.824 515.676 562.392L517.164 563.912C516.428 564.68 515.004 565.192 513.788 565.192C511.324 565.192 509.404 563.384 509.404 560.84C509.404 558.344 511.244 556.536 513.66 556.536C516.252 556.536 517.772 558.504 517.772 561.624H511.804C512.076 562.52 512.796 563.128 513.772 563.128ZM513.756 558.6C512.876 558.6 512.14 559.112 511.836 559.944H515.532C515.308 559.128 514.7 558.6 513.756 558.6ZM524.456 556.536C526.664 556.536 528.264 558.328 528.264 560.856C528.264 563.4 526.664 565.192 524.456 565.192C523.304 565.192 522.344 564.696 521.688 563.832V567.752H519.352V556.728H521.688V557.88C522.344 557.032 523.304 556.536 524.456 556.536ZM523.784 563.224C525.08 563.224 525.992 562.248 525.992 560.856C525.992 559.48 525.08 558.504 523.784 558.504C522.648 558.504 521.816 559.336 521.688 560.536V561.176C521.816 562.392 522.648 563.224 523.784 563.224ZM533.979 565.192C531.515 565.192 529.451 563.208 529.451 560.856C529.451 558.504 531.515 556.536 533.979 556.536C536.427 556.536 538.475 558.504 538.475 560.856C538.475 563.208 536.427 565.192 533.979 565.192ZM533.979 563.224C535.211 563.224 536.251 562.136 536.251 560.856C536.251 559.576 535.211 558.504 533.979 558.504C532.731 558.504 531.691 559.576 531.691 560.856C531.691 562.136 532.731 563.224 533.979 563.224ZM542.391 558.264C542.935 557.192 543.959 556.536 545.223 556.536V558.504C543.495 558.504 542.391 559.496 542.391 561.048V565H540.055V556.728H542.391V558.264ZM550.923 562.952L551.483 564.472C551.003 564.904 550.251 565.192 549.579 565.192C548.123 565.192 547.099 564.152 547.099 562.664V558.616H545.963V556.728H547.099V554.456H549.339V556.728H551.131V558.616H549.339V562.296C549.339 562.84 549.691 563.224 550.123 563.224C550.443 563.224 550.763 563.112 550.923 562.952ZM556.05 565.192C554.722 565.192 553.314 564.744 552.322 563.944L553.33 562.328C554.066 562.856 554.994 563.256 556.098 563.256C556.722 563.256 557.17 563 557.17 562.632C557.17 562.12 556.562 561.96 555.714 561.736C554.018 561.32 552.706 560.856 552.69 559.224C552.674 557.656 553.97 556.536 555.922 556.536C557.106 556.536 558.274 556.952 559.186 557.56L558.242 559.224C557.49 558.76 556.626 558.488 555.922 558.488C555.346 558.488 554.946 558.696 554.946 558.984C554.946 559.432 555.282 559.56 556.402 559.864C557.826 560.232 559.41 560.712 559.41 562.52C559.41 564.152 558.082 565.192 556.05 565.192Z" fill="white"/>
</svg>
