<svg width="186" height="190" viewBox="0 0 186 190" fill="none" xmlns="http://www.w3.org/2000/svg">
<path d="M3.5551 156.584C3.37498 155.692 2.50615 155.116 1.61452 155.296C0.722881 155.476 0.146083 156.345 0.326205 157.236C0.506326 158.128 1.37516 158.705 2.26679 158.525C3.15843 158.345 3.73522 157.476 3.5551 156.584Z" fill="#F39300"/>
<path d="M115.962 155.721L121.368 153.026C122.028 152.698 122.358 152.533 122.606 152.29C122.825 152.075 122.996 151.817 123.109 151.531C123.237 151.208 123.261 150.841 123.308 150.105L123.692 144.077L126.386 149.483C126.715 150.143 126.879 150.473 127.122 150.72C127.337 150.94 127.596 151.111 127.881 151.224C128.204 151.352 128.572 151.376 129.307 151.422L135.335 151.807L129.929 154.501C129.27 154.83 128.94 154.994 128.692 155.237C128.473 155.452 128.301 155.711 128.188 155.996C128.06 156.319 128.037 156.687 127.99 157.422L127.606 163.45L124.911 158.044C124.583 157.385 124.418 157.055 124.175 156.807C123.96 156.588 123.702 156.416 123.416 156.303C123.094 156.175 122.726 156.152 121.99 156.105L115.962 155.721Z" fill="#F39300"/>
<path d="M7.66426 110.385L13.0704 107.691C13.7301 107.362 14.0599 107.197 14.3077 106.954C14.5269 106.739 14.6985 106.481 14.8116 106.195C14.9393 105.873 14.9628 105.505 15.0097 104.769L15.3941 98.7413L18.0883 104.147C18.4171 104.807 18.5815 105.137 18.8245 105.385C19.0395 105.604 19.2981 105.776 19.5836 105.889C19.9062 106.016 20.274 106.04 21.0096 106.087L27.0376 106.471L21.6315 109.165C20.9718 109.494 20.6419 109.659 20.3943 109.902C20.175 110.117 20.0033 110.375 19.8903 110.661C19.7625 110.983 19.739 111.351 19.6922 112.087L19.3078 118.115L16.6135 112.709C16.2848 112.049 16.1204 111.719 15.8774 111.471C15.6624 111.252 15.4038 111.08 15.1183 110.967C14.7957 110.84 14.4279 110.816 13.6923 110.769L7.66426 110.385Z" fill="#F39300"/>
<path d="M112.457 13.6004L117.863 10.9062C118.523 10.5774 118.853 10.413 119.101 10.1701C119.32 9.95507 119.491 9.69646 119.605 9.41092C119.732 9.08837 119.756 8.72056 119.803 7.98496L120.187 1.95692L122.881 7.36304C123.21 8.02275 123.374 8.3526 123.617 8.60027C123.832 8.81953 124.091 8.99121 124.377 9.10426C124.699 9.232 125.067 9.25549 125.803 9.30237L131.831 9.68677L126.424 12.381C125.765 12.7098 125.435 12.8742 125.187 13.1171C124.968 13.3322 124.796 13.5908 124.683 13.8762C124.556 14.1988 124.532 14.5666 124.485 15.3022L124.101 21.3303L121.406 15.9242C121.078 15.2644 120.913 14.9346 120.67 14.6869C120.455 14.4677 120.197 14.296 119.911 14.1829C119.589 14.0552 119.221 14.0317 118.485 13.9848L112.457 13.6004Z" fill="#F39300"/>
<path d="M22.3087 166.238L25.0118 164.891C25.3416 164.727 25.5065 164.644 25.6304 164.523C25.74 164.416 25.8258 164.286 25.8824 164.143C25.9462 163.982 25.958 163.798 25.9814 163.43L26.1736 160.416L27.5207 163.12C27.6851 163.449 27.7673 163.614 27.8888 163.738C27.9963 163.848 28.1256 163.934 28.2684 163.99C28.4296 164.054 28.6136 164.066 28.9813 164.089L31.9954 164.281L29.2923 165.628C28.9625 165.793 28.7975 165.875 28.6737 165.997C28.5641 166.104 28.4782 166.233 28.4217 166.376C28.3578 166.537 28.3461 166.721 28.3226 167.089L28.1304 170.103L26.7833 167.4C26.619 167.07 26.5367 166.905 26.4153 166.781C26.3077 166.672 26.1785 166.586 26.0357 166.529C25.8744 166.466 25.6905 166.454 25.3227 166.43L22.3087 166.238Z" fill="#F39300"/>
<path d="M162.781 146.263L165.484 144.915C165.814 144.751 165.979 144.669 166.103 144.547C166.213 144.44 166.298 144.311 166.355 144.168C166.419 144.007 166.431 143.823 166.454 143.455L166.646 140.441L167.993 143.144C168.158 143.474 168.24 143.639 168.361 143.763C168.469 143.872 168.598 143.958 168.741 144.015C168.902 144.078 169.086 144.09 169.454 144.114L172.468 144.306L169.765 145.653C169.435 145.817 169.27 145.899 169.146 146.021C169.037 146.128 168.951 146.258 168.894 146.401C168.83 146.562 168.819 146.746 168.795 147.114L168.603 150.128L167.256 147.424C167.092 147.095 167.009 146.93 166.888 146.806C166.78 146.696 166.651 146.61 166.508 146.554C166.347 146.49 166.163 146.478 165.795 146.455L162.781 146.263Z" fill="#F39300"/>
<path d="M38.3715 120.985C38.1914 120.093 37.3226 119.517 36.4309 119.697C35.5393 119.877 34.9625 120.746 35.1426 121.637C35.3227 122.529 36.1916 123.106 37.0832 122.926C37.9748 122.745 38.5516 121.877 38.3715 120.985Z" fill="#F39300"/>
<path d="M83.6414 145.447C83.2812 143.663 81.5436 142.51 79.7603 142.87C77.977 143.23 76.8234 144.968 77.1837 146.751C77.5439 148.534 79.2816 149.688 81.0648 149.328C82.8481 148.967 84.0017 147.23 83.6414 145.447Z" fill="#F39300"/>
<path d="M164.314 103.945C163.954 102.161 162.216 101.008 160.433 101.368C158.65 101.728 157.496 103.466 157.857 105.249C158.217 107.032 159.954 108.186 161.738 107.826C163.521 107.466 164.675 105.728 164.314 103.945Z" fill="#F39300"/>
<path d="M184.601 71.2805C184.241 69.4972 182.504 68.3437 180.72 68.7039C178.937 69.0641 177.783 70.8018 178.144 72.5851C178.504 74.3683 180.242 75.5219 182.025 75.1617C183.808 74.8014 184.962 73.0638 184.601 71.2805Z" fill="#F39300"/>
<path d="M95.349 186.77C95.1689 185.878 94.3001 185.301 93.4085 185.482C92.5168 185.662 91.94 186.531 92.1202 187.422C92.3003 188.314 93.1691 188.891 94.0607 188.71C94.9524 188.53 95.5292 187.662 95.349 186.77Z" fill="#F39300"/>
<path d="M169.647 24.2109C169.287 22.4277 167.549 21.2741 165.766 21.6343C163.983 21.9946 162.829 23.7322 163.19 25.5155C163.55 27.2988 165.287 28.4523 167.071 28.0921C168.854 27.7319 170.008 25.9942 169.647 24.2109Z" fill="#F39300"/>
</svg>
