<svg id="Layer_1" data-name="Layer 1" xmlns="http://www.w3.org/2000/svg" viewBox="0 0 24 24" stroke-width="1.5" width="24" height="24" color="#FFFFFF"><defs><style>.cls-637b7b44f95e86b59c579f63-1{fill:none;stroke:currentColor;stroke-miterlimit:10;}</style></defs><path class="cls-637b7b44f95e86b59c579f63-1" d="M21.57,22.5H5.34a1.91,1.91,0,0,1-1.91-1.91h0a1.92,1.92,0,0,1,1.91-1.91H21.57"></path><path class="cls-637b7b44f95e86b59c579f63-1" d="M18.7,22.5H5.34a1.91,1.91,0,0,1-1.91-1.91V3.41A1.91,1.91,0,0,1,5.34,1.5H20.61V18.68H18.7Z"></path><polygon class="cls-637b7b44f95e86b59c579f63-1" points="13.93 11.19 13.93 8.99 12.02 7.89 10.11 8.99 10.11 11.19 12.02 12.29 13.93 11.19"></polygon><line class="cls-637b7b44f95e86b59c579f63-1" x1="10.11" y1="11.05" x2="7.25" y2="12.66"></line><polyline class="cls-637b7b44f95e86b59c579f63-1" points="13.93 8.63 15.84 7.52 15.84 5.32"></polyline><line class="cls-637b7b44f95e86b59c579f63-1" x1="12.02" y1="14.86" x2="12.02" y2="12"></line></svg>
