<svg id="Layer_1" data-name="Layer 1" xmlns="http://www.w3.org/2000/svg" viewBox="0 0 24 24" stroke-width="1.5" width="24" height="24" color="#FFFFFF"><defs><style>.cls-637b7f18f95e86b59c579ff5-1{fill:none;stroke:currentColor;stroke-miterlimit:10;}</style></defs><circle class="cls-637b7f18f95e86b59c579ff5-1" cx="12" cy="12" r="1.91"></circle><path class="cls-637b7f18f95e86b59c579ff5-1" d="M9.14,16.77h0A2.86,2.86,0,0,1,12,13.91h0a2.86,2.86,0,0,1,2.86,2.86h0"></path><circle class="cls-637b7f18f95e86b59c579ff5-1" cx="20.59" cy="3.41" r="1.91"></circle><circle class="cls-637b7f18f95e86b59c579ff5-1" cx="3.41" cy="20.59" r="1.91"></circle><circle class="cls-637b7f18f95e86b59c579ff5-1" cx="20.11" cy="20.11" r="2.39"></circle><circle class="cls-637b7f18f95e86b59c579ff5-1" cx="3.89" cy="3.89" r="2.39"></circle><line class="cls-637b7f18f95e86b59c579ff5-1" x1="7.95" y1="16.05" x2="4.75" y2="19.25"></line><line class="cls-637b7f18f95e86b59c579ff5-1" x1="19.25" y1="4.75" x2="16.05" y2="7.95"></line><path class="cls-637b7f18f95e86b59c579ff5-1" d="M17.73,12a5.74,5.74,0,1,1-1.68-4A5.69,5.69,0,0,1,17.73,12Z"></path><line class="cls-637b7f18f95e86b59c579ff5-1" x1="18.42" y1="18.42" x2="16.05" y2="16.05"></line><line class="cls-637b7f18f95e86b59c579ff5-1" x1="7.95" y1="7.95" x2="5.58" y2="5.58"></line></svg>
