<?xml version="1.0" encoding="UTF-8"?>
<svg id="Layer_1" data-name="Layer 1" xmlns="http://www.w3.org/2000/svg" version="1.1" viewBox="0 0 155.6 160.7">
  <defs>
    <style>
      .cls-1 {
        fill-rule: evenodd;
      }

      .cls-1, .cls-2 {
        fill: #fff;
        stroke-width: 0px;
      }
    </style>
  </defs>
  <path class="cls-1" d="M.5,126.4c0,.4.2-.3.1-.4,0-.3-.3-.1-.1.4Z"/>
  <path class="cls-2" d="M90.7,12.8c0-.4,0-.7-.1-1.1,0,.4.1.7.1,1.1Z"/>
  <path class="cls-2" d="M153.7,132.7c-3.1-1.4-5.6-3.5-7.9-5.6-.8-.7-1.7-1.5-2.1-2.5,1.1.6,2.1.7,2.9,1.6.5.5.5,1.3,1,1.8.6.5,1.7.8,2.8.6,0,0,0,0-.1,0-.6-.2-1.3-.2-1.8-.4-.4-.5-.7-1-.7-1.9.6-.1,1-.3,1.8-.3.1,0,.2.2.3.3.1,0,.3,0,.4,0,.3,0,.5,0,.8.1,0,0-.1-.1-.2-.3.2,0,.4.1.4.3.1,0,.2,0,.4,0,0,0,0-.1,0-.2.3,0,.6.1.9.2,0,0,0,0,.1,0,0,0,.2,0,.2,0,0-.1,0-.3,0-.4,0,0,0,0,0,0-.2,0-.4-.1-.6-.2-.7-.2-1.6-.2-2.2-.3-1-.1-1.9-.2-2.9-.4-.1,0-.2,0-.3-.2-1.5-.3-2.5-1-3.5-1.7,0,0,0,0,0,0,0,0,0,0-.1-.1,0,0,0,0,0,0-.2-.2-.3-.4-.2-.7,0,0-.1,0-.2.1-.6-2-1.6-3.8-2.3-5.7.6.1,1,.5,1.3.9.3,0,.5,0,.8.2-2.1-3-3.7-6.5-5.2-9.9-.1-.3-.3-.7-.5-1-.1-.1-.2-.3-.4-.4,0,0-.2-.2-.2-.3-2-1.4-4-3-5.9-4.6,0,0,0,0,0,0-1.4-1-2.8-1.9-3.7-3.3-.2-.2-.5-.3-.7-.5h-.4s0,0,.1-.1c-.1,0-.2-.2-.3-.2,0,0,0,0-.1,0,0,0,0-.1,0-.2-.6-.4-1.1-.8-1.7-1.3,0,0,0,0,0,0,0,0,0,0,0-.1-1.5-1.2-2.8-2.5-4.1-3.9-1.2-.5-2.1-1.1-2.9-1.9-.6-.3-1.1-.6-1.6-.9-2-1.4-3.9-3-5.5-4.8-.7-.8-1.5-1.7-2-2.7-.1-.2-.3-.5-.4-.8,0,0,0,0,0,0,0,0,0,.1-.2.2-2.6-1.9-4.8-4.4-6.6-7,0,0,0,0,0,0-.2-.3-.4-.5-.6-.8-.8-1-1.5-1.9-1.7-3-.3-.5-.5-1.1-.6-1.7-.1-.2-.2-.3-.2-.3-.5-.7-.7-1.5-.7-2.3-1.9-4-3.2-8.3-3.8-13.1-.9-2.7-1.5-5.5-1.7-8.5-.3-.8-.5-1.7-.6-2.6-.1-1.3,0-2.6,0-3.8,0-1.1-.2-2-.1-3.2,0-1.3-.3-2.5-.4-3.8-.2-2.8.7-5.3.7-8.2-.1-.3-.3-.7-.4-1-.5-1.7-.3-3.5.1-5.2.2-.9.6-1.8.8-2.7,0-.4,0-.8,0-1.1-.5-4-1.3-8-1.6-12-.6,0-1.3,0-2,0-2.2-.2-4.5-.7-7.2-.7s-4.4.3-6.4.6c-.3,0-.5,0-.8,0,.2.7.2,1.5,0,2.3,0,.3-.1.6-.2.8-.3,2.9-.1,5.9.3,8.9,0-.4-.7-.6-.7-1,.3,2.2.4,3.6-.2,6.7-.1.7.3,1.2,0,1.8,0,0,0,.2,0,.3.1,1.7-.4,3.6-.4,5.3,0,.5.2,1,.1,1.5,0,.5-.3,1-.3,1.5,0,.6.4,1.2.4,1.8,0,1.1-.6,2.2-.6,3.2,0,.7.4,1.3.3,2.3,0,.7-.5,1.2-.7,2.1-.2.8,0,1.7-.1,2.5-.3,1.5-1,3.7-1.8,4.8-1.2,1.8-3.3,2.9-5,4.2-.8.6-1.4,1.1-2.2,1.5-3.3,4.1-7.3,7.4-11.5,10.4-.2.2-.4.4-.6.6-.6.5-1.5,1-2.2,1.5-1.5,2-3.3,3.7-5.2,5.4-2.9,3.9-5,8.4-8.3,12-1.1,1.3-2.3,2.4-3.8,3.2-.9.5-1.8.9-2.7,1.4-.9.9-1.8,1.7-2.8,2.4,0,0,0,0-.1-.1-.9,1-1.9,1.9-2.9,2.8-.6.7-1.1,1.5-1.7,2.2-.4.8-.7,1.6-1,2.5-.5,1.8-.9,3.9-2,5.4.2,1.5.6,2.7.7,4.2-.7.7-1.3,1.6-2.2,2.1,0-.1,0-.2,0-.3,0,0-.2.2-.3.2,0,.2,0,.4.1.6-1.4,1.8-3,3.4-4.7,5-2-.6-3.8,1.1-6,1.2,0,0,0,0,0-.1,0,0-.1,0-.2,0-.1,0-.3,0-.4,0,0,0,0,.2,0,.3-.3.3-.4.8-.6,1.2.4-.1.9-.3,1.3-.4,1.1-.7,2.8-.9,4.6-1.1-.8,1.3-2.6,2.7-4,4,0-.2,0-.4-.1-.6-.6.7-1.3,1.4-2,2.1-.2,1.4-1.2,2.2-1.9,3.3.1.6,0,1.2-.2,1.7-.3.6-.7,1.2-1,1.8.2-.1.5-.2.7-.4.5-.5,1.1-1.3,1.6-1.9.5-.5,1.4-1.9,1.8-1.9,0,0,.9.8,1,.9.5.3.7.3,1.2.4-.6,1.2-2.1,1.4-3.1,2.1-1,.7-1.7,1.7-2.6,2.5.2,0,.4,0,.7-.1,1.7-1.4,3.5-2.7,5.4-4,0,.7-.5,1.3-.6,2.1,0,.9.3,1.7,0,2.5-.4,1.1-2.2,2.6-3.5,2.8,0,0,0,0,0,0,0,0,0,0,0,0-.1,0-.2.1-.3.2,0,0,0,0-.1,0,0,0,0,0,0,0,0,0,0,0-.1.1.4,0,.6,0,.7.2,0,0,.1,0,.2,0,0,0-.1-.1-.1-.2,1.3-.5,3.4-1.7,3.8-3.4.2-.9-.1-1.7,0-2.5.2-1,1.4-1.7.7-2.6,2.9-3.3,5.4-7.1,8.8-10,.1,1.6-1.1,3.1-1.3,4.8.9-1.5,1.7-3,1.9-5.1.8-.4,1.2-1.1,1.9-1.6.3,5.4.3,11.4-.6,16.1,0,.5-.4.6-.6.9,0,2.8-.5,6.1-1.2,9,.6,2.5.4,5-.4,7.5-.6,1.7-1.3,3.3-2,5,0,0,0,0,0,0,.9-1.3,1.6-2.8,2.3-4.4,1.1.7,2.1,1.4,2.8,2.5-.4.6-.8,1.1-1,1.9-.9.7-2.1,1.1-2.9,1.8,0,0,0,.2,0,.2,0,0,0,.2,0,.3,1.4-1.1,3.4-1.8,4-3.7.2,1.2,1,2.2,1.2,3.5.2,1.4,0,3-.2,4.6,0,0,.2,0,.2,0,.2-1.6.6-3.5.6-4.5,0-1.7-1.4-2.7-1.5-4.1.9,2.3,2.5,4,2.9,6.7,1.6.9,3.6,2.1,5.9,1.9-2.4-.1-4-1-5.6-2.1-.4-2.5-1.9-3.9-2.5-6.3,3.5.1,4.7,3.8,8.8,2.5-1.8.2-3.8.2-3.8-1.2,1.7-.3,4-.2,5.3.4-.3,0-.7.4-.4.4.3-.1.4-.4.7-.4-1.1,1.5-1.7,3.3-1.3,6-.4.1-.4.6-1,.4.1.7-.6,1.2-1,1.8-.4.6-.7,1.4-1.3,1.9,0,0-.2,0-.3.1,0,.1,0,.2-.1.3.2,0,.4-.2.6-.3.9-1.2,1.7-2.5,2.6-3.7.4-.2,1-.2,1.3-.4-.2,0-.5,0-.6-.1-.2-2.2.3-5.6,1.9-5.9,1.7-.3,2.2,1.9,3.2,2.9-.6.4-1.2.7-1.5,1.5.6-.4,1-.9,1.8-1.2,1,1.2,1.7,2.8,2.9,3.8.8.6,1.8.9,2.6,1.6.6.5,1.2,1.2,1.7,1.8,0-.1.2-.2.2-.3-.3-.1-.5-.5-.7-.7-2.2-2.1-5-3.7-6.3-6.6,1.1,0,1.1,1.2,1.9,1.5-.3-.6-1-.8-1.2-1.6,3.4-.9,3.9-4.8,6.9-6.2-.1,1.4-1.5,1.8-2.3,2.8-1.4,1.7-2,4-1.8,6.9.2-2.8.5-4.9,1.9-6.6.6-.7,1.5-1.2,2.1-1.9.8-1.1.9-2.5,2.3-2.5,0,3,.8,5.2,1.5,7.6-.7.8-1,1.7-1.5,2.3-.6.8-1.1,1.3-1.5,2.1-.3.6-.4,1.3-.6,2,.6-.8,1.4-1.5,2.2-2.1.4-.9,1-1.6,2.1-1.8,0,.3,0,.6,0,.9,0,0,.1,0,.2,0,0,0,0,0,0,0,.5-.5,1.1-1.1,1.6-1.6,0,0,0,0,0,0,1.6-1.6,3.1-3.4,4.7-5,.2-.4.4-.7.6-1.1.4-.8,1.2-1.2,2.1-1.2.2-.6.5-1.2.8-1.8.4.7.6,1.5.9,2.3.3.3.6.6.7.9.4.6.5,1.4.3,2,0,0,0,0,0,0,.4,1.2.9,2.5,1.2,3.8-.7,1-.7,1.8-.4,2.4,0,0,.2-.2.3-.2-.2-.8.4-1.3.5-2,.2-3-2.4-5.1-1.9-8.2.8.2,1.4.4,2.2.6.9,1.7,1.4,3.6,2.1,5.4.7,1.8,2,3.1,3.2,4.4,0,0,0,0,0,0,0,0,0,0,.1,0,0,0,.1,0,.2-.1.1.2.3.4.5.6.3.2.6.4,1,.6,0,0,0,0,.1,0-.8-1.1-2-1.9-2.9-2.9-1.9-2.2-2.5-5.1-3.8-8.1,2.7,0,4.6,2.5,6.3,3.2.5.2,1.2.2,2,0,0,0,.1,0,.2,0,.8-.2,1.5-.5,2.1-.8-1.2,0-2.1.6-3.5.4-.5-.4-.9-.8-1.2-1.5,1.7-.7,4.2-1.1,6.4-.7.3.5-1.4,1-1,1.6.6-.1,1.1-1.3,1.9-1.5.2,0,1-.2,1.2.3-.5.9-2.8.8-2.8,1.8.9-.3,1.9-.5,2.8-.9,0,.5-.1.9-.1,1.4.2,0,.4,0,.6,0,0-.5,0-1,.2-1.5.8-.1,1.6-.8,2.4-.6,0-.3,0-.6,0-.9-.7.2-1.4.2-2.3,0,0-.5.2-.7.1-1.3.5-.4,1.3-.7,2-1,0-.5-.1-1.1-.2-1.6,0,0,0,0,0,0h-.4c-1.5-1.2-3.4-2.2-4.8-3.7-.5-.5-1.1-1.2-1.6-1.8-.5-.6-1.2-1.2-1.6-1.8-.6-.8-.6-1.7-1.5-2.2-1.2-.7-2.6-.2-4-.9.9-.3,1.2-1,2.1-.9.5,0,.9.8,1.6,1,1,.3,1.6-.1,2.8-.1.6-.7,1.1-1.7,1.3-2.8,1.3-1,2.8-1.7,4.4-2.5.2.7.1,1.7.6,2.2.1-1.3-.9-2.8.7-2.8.2.8,1,1.5,1.2,2.6,0,.8,0,1.6,0,2.5.2,0,.4,0,.5.2,0-1,.1-2,0-3,0-.9-.5-2.1-.4-2.6.1-1.1,1-2.2,1.5-2.8.4,2.9.5,6,.7,9,.2.1.3.4.3.7,0,1,0,2,.2,3,0,0,.2.2.2.4.8,2.8,2.1,5.4,3.2,8.2.3-.1.5-.2.8-.2,0,0,0-.2,0-.2-.3-.8-.7-1.5-1-2.3-.7-1.6-1-3.4-.9-5.2,0,0,0,0,0-.1,0-.5,0-.9,0-1.4,0-.2,0-.5,0-.7,0-.3.1-.6.4-.7,0-.2,0-.3.1-.5.1-.4.4-.6.8-.7,0,0,0,0,0,0,0,0,0,0,0,0,0,0,.2,0,.3,0,.3,0,.6.4.7.8,0-.1,0-.3,0-.4.8-.1,1.3.8,1.6,1.3.5,1.1.7,2.6,1.3,4,.6,1.3,1.2,2.6,1.5,3.8-.1,0-.2,0-.3,0,0,0,0,0,0,0,0,0,.1,0,.2.1,0,0,0,0,0,0,0,0,0,0,0,0,0,0,0,0,0,0,0,0,0,0,0,0,0,0,0-.2,0-.2,0-.2.1-.4.2-.6,0,0,0,0,0-.1,0,0,0,0,0,0-.6-2.3-2-3.7-1.9-6.7,1.7.4,3.1,1.2,4.8,1.6.2,1.1,1.3,1.6,1.7,2.3,0-.2,0-.4,0-.5-.2-.4-.9-.8-.7-1.1,0,.2.4.3.7.5,0-.3,0-.5,0-.8,0-.4,0-.7,0-1.1-.6,0-1.1-.2-1.7-.3-.3-1-.8-2.7-.6-3.7.6.4,1.4.5,2.1.8,0-.1,0-.2,0-.3-.7,0-1.4-.7-2.2-.8-.2-1.1-1.1-2.3-.9-3.4.6,1,1.7,1.6,2.5,2.5,0-.1,0-.3,0-.5-.9-1-1.8-2-2.8-2.9,0-1-.5-1.7-.4-2.5.1-1.2,1.1-1.9,1.8-2.6.5-.6.9-1.5,1.5-1.5.2.2.3.4.3.7.4,0,.7.4.8.8,0,0,0,0,0,0,.1.1.3.2.3.4.5,1.3.7,2.5.7,3.9,0,.5,0,1.1-.1,1.6,0,.2,0,.4,0,.6.5-.8,1-1.5,1.5-2.3.5-.8,1.7-.4,1.7.5,0,.7,0,1.3,0,2,.2.2.4.4.3.7-.1,1.5-.2,3-.2,4.5.4.1.7.5.7.9,0,1.6,0,3.6-.6,5.2,0,1.6-.2,3.2-.7,4.7.1,0,.3,0,.4.1.8-3.4,1.6-6.8,1.5-10.4,0,0,0-.1,0-.2-.1-.8-.2-1.6-.3-2.3.3-.2.9,0,1-.3h-1c0-2,.2-4.3-.1-6,1,.2,1.5.9,2.2,1.3-.1,1.6.7,3,.6,4.4,0,.7-.5,2-.9,3,0,0,0,0,0,0,0,1.6,0,3.2-.3,4.8,0,.1.1.2.1.4,0,2.8,1.2,5.6.9,8.4.3.3.6.6.9.9.2.2.4.4.6.6,0,0,.1.1.2.2.5-.2,1-.4,1.5-.5-.4-.6-.7-1.1-1.1-1.6,1.9-1.9,3.7-4,5.4-6.2,2.2,1.4,3.5,3.6,4,6.8,0,0,.2,0,.3,0,0-.7-.2-1.3-.2-1.7.8.8,2,1.8,3.2,1.6-3-.5-4.3-3.5-5-5.9,1.7,2.6,3.9,4.7,6.2,6.7-.2,0-.3,0-.4,0,.2.1.4.3.7.4,2.4-.2,2.6,3.3,5.3,3.4,1.5,1.3,2.5,3.1,3.4,5,.1,0,.2.2.3.2-.6-2-1.9-3.6-2.7-4.8,2,1.2,3.1,3.9,5.4,4.8,1.9.8,4.3.2,6.2,1.5-1.2-1.4-3.9-1.4-6.2-1.8-3.1-2.9-6.1-5.9-9.7-8.3.7-.1,1.6,0,1.8-.6-.8,0-1.4.4-2.3.3-.4-1-.4-2.1-.9-3.1-.4-.9-1.3-1.4-1.8-2.2-1-1.6-1.3-3.7-2.8-5,1.8-.6,3.1-1.8,4.5-2.8,1.2.9,2.9,1.9,4.2,2.2-.6-.5-4.1-1.8-4.1-2.6,0-.3,1.6-1.4,1.6-1.6,1.5,1.2,2.8,2,4.1,3.2,1.2,1.2,2.1,2.8,3.8,3.5,2,.8,4.6.2,6,1.5-1.3-1.9-4.2-.9-6-1.8-.5-.2-1.3-1-1.6-1.3-2-1.9-3.7-4.3-6-5.6,2.2-3.2,2.7-8.2,5.4-10.8,1.2,1,2.4,2,3.4,3.1,1.4,1.6,2.6,3.7,3.8,5.4,1.2,1.7,3.1,3.4,4,5.3.4.9.4,2,.7,2.9.6,2.1,1.2,3.9,1.8,5.9.2,1,.3,2.2.7,3.1.2.5.9,1.2,1.3,1.8,1.6,2.1,3.2,3.5,5.1,5.3,1.3,1.2,2.5,2.5,4,3.4-2.4-3.2-6-6-8.3-9.2-1.3-1.7-1.9-3.4-2.6-5.6-.5-1.4-.7-2.7-1-4.1-1-3.8-2.7-7.6-4.8-10.1-2.3-2.7-4.6-4.9-6.6-7.9.6-.2,1.4.3,2.1.4,1.5,1.8,2.6,4,5.6,4.4.8.6,1.6,1.4,2.6,1.9.6.3,1.5.3,1.9,1-.2,1.4-1.3,2.1-1,3.4.3,1.6,4.6,3.8,7.2,3.1,1.1,1.7-.4,5.9,1.2,6.4-.5-1.6,0-3.6-.1-5.3-.3-2.3-1.8-3.6-2.2-5.3,1,.3,1.9.8,2.7,1.4.1-.2.2-.3.4-.4-1.3-.8-2.8-1.5-4.1-2.3-.9-1.4-1.6-2.9-2.8-4,.6,0,.9.8,1.3.4-.7-.6-2.2-1.3-2.1-2.2,2.1,2.2,4.4,3.9,6.9,5.6.9.6,1.7,1.5,2.7,1.8.1,0,.2,0,.3,0,0,0,0,0,.1,0,0,0,0,0,0,0,0,0,0,0,0,0,.6.2,1,.6,1.3,1.1.5.7,1,1.4,1.4,2.2.1,0,.2,0,.3.1-.5-1.5-1.1-2.9-1.8-4.2ZM2.2,121.4c.4-.5.6-1.2,1.2-1.5-.3.5-.8,1.6-1.2,1.5ZM11.1,114.5c-.4.9-1.6,1.9-2.3,2.1.9-.6,1.3-1.6,2.3-2.1ZM6.7,122.6c-.8-.4-1.8-.6-2.2-1.3,1.6-2.8,5.6-5.3,8.6-6.7-2.2,2.6-3.9,5.8-6.4,8.1ZM15.2,111c-.7.7-1.5,1.6-2.3,1.5,1.1-.8,1.8-2.1,3.1-2.8.4.6-.3.9-.7,1.3ZM16.2,109.8c0-1.4,1.3-1.7,1.9-2.5-.3,1.2-.9,2.1-1.9,2.5ZM93,112c-.3-.4.1-1.1.3-1.5.2.3.3,1.5-.3,1.5ZM93.1,113.1c-.7,0-1-.5-1.3-.9.8-.2,1.4-.2,1.3.9ZM93.3,113.8c1.3.4,2.3,2.4.6,3.1-.8-.5-.8-1.9-.6-3.1ZM94.6,114.7c-.1-.9-1.4-.9-1-1.9.8,0,1.5,1,1,1.9ZM94.4,112.8c-.1-.3-.4-.4-.7-.4.3-1,0-1.8-.3-2.5.4.1.4-.3.9-.1-.1,1.1.5,2.3.1,3.1ZM93.8,107.9c-.3-.4-1.1-.3-1.2-.9.5,0,.8-.4,1.3-.4,0,.4.5,1.3-.1,1.3ZM94,105.9c-.9,0-.9-.9-1.8-.9.4.6,1.1.9,1.8,1.3-1.5,1.1-3.1,0-4.2-.7-.2-1.3.9-2.6,0-3.4.7-.8,1.9-1.3,1.9-2.8.6-.4,1.3-.6,1.9-.9.2,2.4.2,5,.4,7.3ZM90.3,127.8c0-.2-.4-.1-.3-.4-.5-3.4-2.8-5.7-2.3-9.5.4.3,1.1.3,1.5.7-1,4,2.9,6.3,1.6,9.2h-.4ZM90.6,128.3c-.3.5-.3,1.4-.9,1.6v-1.9c.5,0,.6.2.9.3ZM87.2,115.3c0-.2.2-.2.3-.3.3.8,1.5,1.4,1.5,2.1-1-.8-2.4-1.2-3.1-2.3.7-.1,1.2.1,1.3.6ZM85,112.5c1.2.2,1.8,1,2.3,1.9-1.3.4-3-.3-2.3-1.9ZM89.1,116.6c-.4-.7-1.2-.9-1.3-1.8,1.3-.9,0-6-.7-6-.2,0,0,.4-.3.4-.3-.9.2-1.2.7-1.6.9,1.2,1.2,3,2.6,3.7-.3,1.8-.3,3.9-1,5.3ZM89.9,118.8c.8,0,.5,1.7,0,1.8v-1.8ZM89.9,110.6c-.4-1-1.2-1.6-1.5-2.6.7.2,1,.7,1.8.9-.2.5.3,1.7-.3,1.8ZM90.2,101.3c.1-.7.6-1,1-1.3,0,.7-.6,1-1,1.3ZM91.1,89.5c-1-.1-1.6.2-2.6.1.9-4-.5-9-1.2-11.1,1.5,3.4,2.6,7.3,3.8,11ZM87.4,100.3c.3-2.4,0-5,.9-6.3-.6-1,.3-2.4,0-4,.8-.3,2.1,0,3.1-.1.7,2.2,1.6,4.2,1.9,6.7-1.7.9-3.4,1.5-4.4,3.1-.6.9-.6,2-1.5,2.8,0,.1-.1.2-.3.1-.4-.7.2-1.4.3-2.3ZM86.8,77.3c0,.1.4,1.1.1.7,0-.1-.4-1.1-.1-.7ZM87.4,109.7c.2,1.5,1.4,3.6.1,4.8-.3-1.2-1.2-1.9-2.3-2.3.4-1,.3-2.3,1-2.9,0,.4.7.8,1.2.4ZM78,75c2.6,1,4.1,3.8,4.1,6.9-1.2-2-3.3-3.2-4.5-5.3.3-.4.3-1,.4-1.6ZM73.9,93.3c1.4.6,2.4,2.5,2.3,4.1-.4-.2-.9-1.1-1.2-1,.3.9,1.8,1.4,1.8,2-.9-.8-2.6-1-3.5-1.8,0-1.2.4-2.3.6-3.4ZM74.1,97.4c1.5.4,2.7,1,3.7,1.9-.9-.3-1.8-.5-2.6-.9-.7-.3-1.8-.6-2.1-1.5.4-.3.6.4,1,.4ZM68.5,76.2c0,0,0,.2-.1.1-3.4-1.8-6.8-3.7-10.4-5.3.5-.5.4-1.6,1.2-1.9.9.4.7,1,1.6,1.2,2.7.5,3.5-3.1,5.4-3.7,3.2.9,3.2,6,2.3,9.5ZM66.7,90.9c-.3.5-.6-1-.7-.6.4.7,1,1.3.7,2.6-1.1-1.1-2.7-2.4-4.5-2.3,1.8.3,4.2,1.5,4.4,2.9,0,.4-.3,1.2-.4,1.8-.2.6-.2,1.3-.6,1.8-1.8-.1-2,1.2-2.8,2.1-1.5-.3-.9-1.6-1-2.8-.2-2.4-2.1-4.5-2.2-6.4.4,0,2,.5,2.5.4-.9-.2-1.4-.6-2.5-.6-1.2-1.5-3.8-1.8-5.9-2.5-1.8-1.6.1-4.6-.6-6.9-.3-1-1.1-1.1-1.5-2.2,1.2-.1,2.8.6,3.4-.3,0,.3-.2,1,.3.9.2-.6,0-.9.1-1.3,1.8,0,3.9.2,5.4-.1-2,0-4,0-5.7-.4-.2-2.5,1.8-2.9,2.3-4.7,4.2,1,7.3,3.1,11,4.7-.6,3-.3,6.2-.7,9.2-.2,1.7-1.2,3.2-1,4.8ZM62.6,133.3c-.3,0-.5,0-.6-.1,0-.4.2-.7.4-.9-.1.5.2.6.1,1ZM61.8,114.8c-3.1,1.8-6.3,3.5-10,4.7.6-1.2,1.9-1.7,2.6-2.8,1.9-.2,3.5-.6,5.1-1-1.7-.2-3.2.7-4.4.6,1.8-3,3.2-6.4,5.7-8.6.5.8.7.5.1-.1,1.3-.6,1.9-2,3.7-2.2.7,2.7-.7,4.4-1,6.2-.3,1.2,0,2.4-.7,3.4h-1.2ZM60,122c.9,1.2-.4,3.3-.9,4.4,0-1.3-.3-2.4-.4-3.7.4-.3.8-.6,1.3-.7ZM58.7,120.4v-1.5c.4-.3,1-.6,1.6-.7-.3,1-.9,1.6-1.6,2.2ZM47.6,142.5c-.3.1-.4.4-.7.4,0-1.8,1.1-2.4,1.8-3.5.2.9-1.7,1.7-1,3.1ZM27.1,107.9c-1.3-2.4-2.3-5-3.7-7.2.7-1.2,1.8-2.1,3.4-2.5,2.3.9,3.9,2.8,5.7,4.7,1.1,1.2,2.5,2.3,3.1,3.8-.6.8-1.8,1.1-2.6,1.8.2,1.8-1,2.7-.9,4.1.1,2.3,2.3,2.4,4.1,3.4-.6-1.1-2-.8-2.8-1.3-.5-.4-1.1-1.4-1.2-2.1,0-1.3,1.2-2.2,1-4,1-.3,1.6-.9,2.5-1.3,0,.9.3,1.5.3,2.3,2.1,2.6,4.2,5.3,4,10.3-3.8,1.4-8.1,2.4-11.1,4.5-1-1.3-1.5-2.5-1.5-4.2,0-1.1.6-2.4.6-3.5,0-1.2-.6-2.3-.7-3.5-.2-1.8.2-3.5-.1-5.3ZM27.1,95.6c-.5-1,1.1-1.8,1.9-2.5.3.5.7.7.7,1.5-1,.2-1.5.9-2.6,1ZM30.6,96.5c0,.8.8,1.7.6,2.3-.7-.7-1.6-1-2.2-1.8.6-.1.9-.5,1.6-.6ZM50.9,83.6c-1.1-.7-1.6-3-.7-4.4-.2,1.8,1.1,2.9.7,4.4ZM50.9,79.4c1.1.9,1.6,2.8,1.2,4.8,0,.1-.1.2-.3.1-.1-.6-.4-1.3-.6-2.2-.2-.9-.4-2-.3-2.8ZM55.2,90.4c-.7,0-.9-.3-1.6-.1-.3-.7-.6-1.4-.6-2.5.5.1.5.7.7,1.2.4.5,1.2.7,1.5,1.5ZM54.1,88c1.4.5,3.1.6,4,1.6-.8.2-1.3.6-2.2.7-.4-.9-1.5-1.3-1.8-2.3ZM53.3,90.5c.4,1,1,2.6,1.6,2.9-.3-1-.8-1.8-1.2-2.8h1.8c1.4,1.7,1.7,4.6,3.2,6.2-1-2-1.4-4.5-2.6-6.3.9-.1,1.5-.5,2.5-.6.4,1.8,2.2,4.2,2.5,6.7,0,.5-.2,1.3,0,1.8,0,.3,1.2.9,1.2,1.3,0,.2-1.2,1.2-1.6,1.3-1.5.5-4.5,0-5.7-.6,0-1.1.3-2,.1-2.8-.5-2.9-4.7-3.3-3.5-7.3.8-.1,1.1.2,1.8.1ZM47.7,115.1c.4.5,1.2.4,1.6.9-.6.2-.9.6-1.6.7.2-.6-.5-1.2,0-1.6ZM47.4,114.7c0-1.5-.3-3.1-.1-4.4.5,0,1,0,1.2-.3-.5,0-.6.3-1.2.1.3-1.2-.2-2.4.1-3.4.3.7.5,1.4.9,1.9-.5-1.8-1.6-3.1-1.6-5.4,1.1-.7,3.4-1.1,5.1-.7,0,1.4-.7,2.6-.4,3.7.3-1.2.7-2.1.7-3.5,2.3.2,4.4.6,5.6,1.9-1.2,2.1-3.2,3.6-4.2,5.9-.8,1.7-1.4,3.4-2.6,4.8-.5,0-.7.4-1.2.4-.7-.4-1.5-.6-2.2-1ZM45.8,108.7c.4-.1.3.3.6.3-.9-.9-.7-3.3-.9-4.7,1.4,1,1.4,4.2,1.2,6-.5.1-.6-.2-1-.1-.3-.4.2-.8.1-1.5ZM52.2,102.4c0-1.2-.4-2.2-.6-3.2.6.1.9.6,1.5.7,0,.3-.4.6,0,.7,0-.3,0-.5.1-.6,1.7,1.1,4.6,1.7,7.3,1.2-.8,1.2-1.7,2.4-2.9,3.2-1-1.4-3.4-1.5-5.4-2.1ZM51.1,93.1c-.3-.3-.9-.4-1.2-.7,0-.9,0-1.8.4-2.3,0,.3.6,0,.9.1-.3.8,0,2.4-.1,2.9ZM53,99.6c-.5-.4-1.1-.7-1.6-1-.4-2-2-2.8-1.6-5.6,2.4.7,4.7,3.4,3.2,6.6ZM53.4,96.1c1.4.5,1.5,2.3,1.2,4.1-.6,0-.8-.3-1.2-.4.2-1.2.5-2.6,0-3.7ZM51.7,85.1c.3.2.5,1.2.1,1.5-.4,0-.4-1.2-.1-1.5ZM51.5,89.9c.4-.8.1-1.5.1-2.5,1.1.3.8,1.9,1.3,2.8-.6,0-1.1,0-1.5-.3ZM51.1,90.1c-.1-.2-.5-.2-.7-.3-.2-1.3-1.5-1.5-1.9-2.6.8-.4,2.1,0,2.9.1,0,1.2.2,2-.3,2.8ZM48.7,88.3c.3.3,1.1.9.6,1-.6-.6-2-1.1-1.8-2.1.3.2.8.6,1.2,1ZM49.6,89.9c-.2.5.1,1.7-.4,1.9-.3-.9-1.3-2-1.2-2.9.4.4,1,.7,1.6,1ZM48.4,91.7c.3.4.9.6,1,1.2.2.8-.4,1.6-.1,2.6.5.7.9,1.4,1.3,2.2,0,.2,0,.3-.3.3-.3-.4-.9-.6-1.3-1,0-2.4-.8-3.8-1.5-5.4-.6-1.3-1.6-2.6-.9-3.7.9,1,1,2.6,1.8,3.8ZM46.7,90.7c.7,1.6,2.1,3.8,1.8,5.6-.4-1.8-2.9-2.7-3.1-4.5,0-.8.6-1.4.6-2.5.6.2.5,1,.7,1.5ZM45.5,92.6c.9,1.6,2.3,2.8,3.1,4.5,0,.6-.7,2.2,0,2.6,0-1,.3-1.5.3-2.3,1.9.6,3.3,2.5,2.8,5-1.5-.6-4.3-.4-5.1.6-.3-3.4-1.2-7-1-10.4ZM46.1,103.7c0,.3.4,1.1.1,1.2-.2-.4-.7-.6-.9-1,.4,0,.3-.3.7-.1ZM46.7,110.4c0,1.5.1,2.7.3,4-1.5-.5-2.8-1.2-3.4-2.6,1.1-.5,1.4-2.1,3.1-1.3ZM36,103c.6.5.4,1.8,0,2.5.2-.9-.4-1.8,0-2.5ZM36.9,103.7c1,.1,1.3,1.2,2.1,1.8.6.5,1.4.6,2.1,1,1.3.8,2.7,2.4,4,3.1-.3,1.1-1.6,1.2-2.1,2.2-2.3-1.7-5.2-2.9-6.7-5.4.5-.6.5-1.7.7-2.6ZM37.5,103.1c1,.2,2.5-.1,2.6.9-1-.2-2.2-.2-2.6-.9ZM44.8,109.4c-1.7-2.3-4.9-3-6.6-5.3.5.2,1.3.1,2.1.1.7.4,1.3,1.2,2.3,2.1,1.1.9,3.3,1.5,2.2,3.1ZM44.9,107.8c-.9-.8-2.2-1.8-3.1-2.6-.2-.2-1.1-.6-.6-.9,1.2.1,1.9-.2,3.1-.1.2,1.1.9,2.5.6,3.7ZM40.1,103.1c.6-.4,1.4-.5,2.1-.7-1.2-.3-1.4.3-2.3.6-.4-1-1.2-1.4-1.6-2.3,2.6.4,5.7.3,5.9,3.1-1.5-.2-3.6,1-4-.6ZM39.4,103c-2.5.5-2.8-1.2-3.7-2.3.6-.1,1.2-.2,1.9-.1.4,1.1,1.1,1.7,1.8,2.5ZM32.6,95.5c.5-.2.8-.5,1.2-.7,1.3,1.1,2.1,2.8,2.9,4.4-2.9,1.3-3.2-2-4.1-3.7ZM35.3,105.4c-1.1-1.6-3-3.3-3.7-4.8,1.8,1,4.2,2.1,3.7,4.8ZM32.9,99.6c-.1-.2-.5-.2-.7-.3,0-1-.5-1.6-.6-2.6-.1,0-.2-.3,0-.3.2,1.2,1.5,2.1,1.3,3.2ZM39.1,112.9c-.9-1.9-3.2-3.1-2.6-5.7.5.8,1.2,1.6,2.1,2.2,1.6,1.3,3.9,2.2,5.3,3.7,1.2,1.2,1.4,2.8,2.1,4.7-1.8.7-3.5,1.3-5.4,1.9,0-2.7-.6-5.1-1.3-6.7ZM45.2,113.9c.6.4,1.4.6,1.9,1,0,.8.3,1.3.3,2.1-.6,0-.7.5-1.3.4-.2-1.1-.8-2.7-.9-3.5ZM47,127.8c.5,0,.8.2,1.2.4v1.6c-.6,0-1.8-1.2-1.2-2.1ZM47.6,134.1c.2,1.6,1.1,3.4.6,5-.2.8-1,1.2-1.3,1.9.4-2.5-.9-5.7.7-6.9ZM49.2,139.9c.1-.5-.2-1.6-.3-2.5-.1-1.9-.2-3.3,0-4.8,1.3.3,2.4.7,3.7,1,.3,1.8,1,3,1.5,4.5-1.5,1.8-3.7,3-6,4-.3-1.1.9-1.2,1.2-2.2ZM49,128.7c.5,0,.4.5.9.4-.2.6-.5,1.2-1.2,1.3.2-.7-.1-1.2.3-1.8ZM51.8,132.4c-.8-.6-2-.7-2.5-1.6.3-.4.7-.7,1-1.2.7.7,1.3,1.6,1.8,2.5,0,.2,0,.3-.3.3ZM51.1,128.6c-1.2,0-1.3-1-2.3-1,0-.8-.3-1.3-.3-2.1,1.6-.2,3.4-.3,4.5.4,0,1.3.3,2.2-.1,3.2-.3.1-.7.3-1.2.3,0-.4-.3-.7-.6-.9ZM48.9,124c.4-.6.7-1.5,1-2.2,2.1.4,4.8,0,6.3,1-1.6,1.1-4.9,1.3-7.3,1.2ZM50.2,121.3c1.6-1.1,3.8-1.6,6.3-1.8,0,1,.7,1.5.6,2.6-.3,0-.4.3-.7.3-1.5-.9-4.5-.4-6.2-1.2ZM54.9,77.5c-1,0-1.7-.1-2.6-.1.6-.9,1.5-1.5,2.6-1.9-.2.8,0,1.2,0,2.1ZM55.9,74c.3-.5.5-2,1-1.8-.4.4-1,2-1,1.8ZM68.2,58.9c.5,2.5.5,6.1.4,8.9-.8-1.2-1.5-2.5-3.7-2.3-.5-1.2-1.1-2.3-1.3-3.7,1.6-.9,2.7-2.3,4.5-2.9ZM62.5,64.3c.5,0,1.3,2.1,1.2,3.1,0,1-1,1.7-1.2,2.3-1.5.6-2.3-.4-2.9-1,0,.3-.5,0-.6.3.7-1.5,1.5-3,2.6-4.1,0,0,1-.6.9-.6ZM61,63.6c-.7,2.2-2.3,3.6-2.9,6-.7.1-.7,1-1.5,1-.2-.5-1.1-.4-1.3-1,1.7-2.2,3.6-4.2,5.7-6ZM56.2,72.1c-.6,1.5-1,3.2-2.8,3.5.8-1.3,1.3-2.9,2.8-3.5ZM53.9,71c-.8,2.2-1.2,4.8-2.9,6h-.3c-.7-1.2-.8-2.3-1.2-3.5,1.4-.9,2.6-2,4.4-2.5ZM49.3,78.1c.4-.4.5.4.9.4-.6.6-.9,2.2-.7,3.1-.7-.8,0-2.3-.1-3.5ZM51.2,86.1c-1.3,0-2.3-.3-3.7-.3.3-1.3,1.3-1.8,1.3-3.2,1,1.1,2.6,1.6,2.3,3.5ZM47,75.1c.2.4.3.8.3,1.5-.8,0-1.2-.3-1.6-.6.5-.3.7-.8,1.3-.9ZM47,77.9c1.1,1,1,4.5,0,5.6-.1-2.4-.9-4.1-2.1-5.4.8.1,1.2-.2,2.1-.1ZM44.8,79.4c1,1.3,1.7,3.8,1.6,5.7-.7-1.7-2.4-3.1-1.6-5.7ZM43,82.3c.3.4.2,1.1.9,1.2.1-.5-.6-.9-.3-1.2.9,1,1.8,1.9,2.3,3.2-1.7-.3-2.8-1-3.8-1.9.3-.4.3-1.1.9-1.3ZM45.7,87.1c-.3,0,0,.5-.3.6-.4,0-.4-.3-.9-.3-.2.4-.3.9-1,.9-.7-.9-1.6-2.3-1.6-3.4,1.1.9,2.8,1.2,3.8,2.2ZM45.2,87.9c0,.6-.3,2-.7,2.6,0-.7-1-1.3-.7-1.9.6.5.8-.8,1.5-.7ZM38.5,87.3c.2-.8-.1-1.8.7-2.3,1.6,0,2.1,2.3,3.1,3.1.7.6.9.9,1.5,1.8.3.6.7,1.1.7,1.5.1.7-.2,1.5-.1,2.2.2,3.3,1.6,6.7,1.5,10-.4-.1-.4.2-.7.1-.1-3.7-4.8-2.9-7.5-4.1-.7-2.3-2.1-3.8-3.4-5.4,1.6-1,2.4-2.8,3.2-4.7.3-.7.8-1.4,1-2.1ZM34.4,90.4c.6-.9.8-2.3,1.6-3.1-.5,1-.9,2.9-1.6,3.1ZM31.3,89c1.4-.8,2.7-1.6,4.1-2.3,0,.6-.4.7-.6,1.2-.2.5-.1,1.2-.3,1.6-.5,1.3-1.9,2.1-2.3,3.4-.9-.3-1.5-.8-1.9-1.6.5-.6.7-1.4,1-2.2ZM31.4,93.4c-.4,0-.3.6-.9.4,0-.7-.7-1-.9-1.6.7.3,1.3.7,1.8,1.2ZM30.1,89.6c-.5.2-.6.8-1.2.9,0-.3-.5-.1-.4-.4.3-.3,1.2-.8,1.6-.4ZM28.4,92.4c-.6.8-1.4,1.5-2.2,2.2-.2-.4-.5-.7-.7-1,.7-.6,2-2.1,2.9-1.2ZM27.2,91.7c0,.6-.7.6-1,.9.2-.5.4-1.2,1-.9ZM25.4,92.6c0,.3,0,.7-.6.6,0-.4.4-.4.6-.6ZM24.9,96.1c-.6,1-1.3,1.8-2.2,2.5,0-.4-.3-.3-.1-.7.7-.7,1.2-1.5,1.9-2.2,0,.2.2.4.4.4ZM21.9,95.3c.4-.3.7-.7,1.3-.7.3.2.5.4.7.7-.6.6-.9,1.5-1.8,1.9-.2-.5-.4-1.1-.3-1.9ZM20.9,97.8c.6,0,.5,1,0,1v-1ZM21.3,99c.7.6-.1,1.4-.6,1.8,0-.8,0-1.5.6-1.8ZM18.1,139.6c0,.6-.1,1-.4,1.3,0-.5.2-1,.4-1.3ZM31,149.2c-3.3-1.3-9-.3-11.1-2.8,1.1-1.7,2.8-2.7,4.4-4,2.3-.2,4.7,0,6.3.7.7.3,1.1.9,1.8,1,3,.6,5.6-.9,8.1.1-1.2,0-2.1,1.1-3.4,1.3-2,.3-3.5-.8-5-1.5,0,0-.2,0-.1.1,1.2.9,2.8,1.5,4.5,1.9-1.2.3-2.1.8-3.4,1-.6.7-1.3,1.3-2.1,1.9ZM41.8,146.6c-.6.5-1.2,1.2-1.8,1.8-1.3,1.5-2,3.7-4.1,4-.5-1.1-1.1-2.1-2.3-2.5.9.7,1.7,1.4,2.1,2.6-1.6-.1-1.5-1.9-2.5-2.6-.4-.3-1.3-.2-1.6-.6.5-.5,1.3-.7,1.6-1.3,4-.7,7-2.3,10.5-3.5,0,1.2-1.2,1.6-1.9,2.2ZM38.9,143.5c-2.3,0-4.8.9-6.6.4-1-.3-1.4-1.7-2.3-1.5.2.1.5.1.6.4-1.8-.5-4.1-.9-5.9-.7.6-.8,2.7-.2,3.5-.4-.6-.3-1.9,0-2.5-.3,1.6-1.1,2.9-2.1,4.4-2.8,1.6-.8,3.3-1.3,4.8-2.5,1.3-1,2.7-2.3,3.7-3.7,1.5-2,2.3-4.7,5-5.3.4.9-.1,1.5-.1,2.3,0,3.1,1.8,7,1.3,10.4-.1,1-.9,1.7-.9,2.8-1.2.6-3,.7-5,.7ZM44.8,142.5h-.4c0-.7.2-1.2.6-1.5,0,.5.1,1.2-.1,1.5ZM44,145v-.7c.3-.1.6-.3,1-.3,0,.6-.7.7-1,1ZM45.1,126.1c-1.2.6-3,.6-4.1,1.5-.9.7-1,2.4-1.6,3.1-.9,1.1-2.4,2.8-3.5,4-1.3,1.3-3.7,2.5-5.9,3.4-1.1.5-1.8,1-2.8,1.8-.8.6-1.9,1.6-2.8,1.9-.8.3-1.7,0-2.5.4-.6-.2-1-.7-1.6-.9.3.5,1,.5,1.2,1-.7.3-1.4.5-2.2.7,1.6,0,2.5-1.1,3.8-.1-1.3,1-2.8,1.9-3.5,3.5-1.2-.1-2.2-2.4-2.2-3.5,0-1.2,1.4-2.5,1.6-4.2.3-2,0-3.7.4-5.6.3,0,.5,0,.6-.3-.3,0-.5.4-.4-.1,2-7.2,2.7-16.1,1.8-24.9.2-.5.7-.6.6-1.3-1.6-1.4-.4-3.8.7-4.8.6,2,2.7,3.7,3.4,5.6.4,1.2.5,3.2.7,5,.2,1.6.7,3.3.7,4.5,0,1.2-.4,2.5-.4,3.7,0,1.1.4,2.2.6,3.2.3.4.7.7.9,1.3-1,1.1-1.3,2.8-2.1,4.1,1.4-.7,1.4-2.8,2.5-3.8,2.2,1.6,2.3,5.9,2,9.1,0-.4.2-.6.2-1.1,1.4-.5,2.9-1,4-1.9-1.2.6-2.5,1.2-3.8,1.8.4-3.5-.6-6.4-2.2-8.3,1-.6,2.2-1,3.5-1.5,2.4-.8,4.9-1.8,7.3-2.5.3.1,0,.8.3.9,0-.5,0-.7.1-1,1.8-.4,3.1-1.3,5.6-1,0,.8.5,1.3.6,2.1-2.6.8-5.3,1.6-6.9,3.4-1,1.1-.9,2.8-1.8,4.2,1.7-1.2,1.4-3.4,2.8-4.7,1.5-1.3,3.9-1,5.7-2.2-.3,1.4-.9,2.6-1.3,3.8ZM24.1,142.1c-.4.3-1.2.7-1.9.3.2-.5,1.5-.6,1.9-.3ZM46.5,134.1c0-1.2-.2-2.4-.4-3.5,1.6.4,1.5,2.5.4,3.5ZM46.5,153.8c.2,0,.1-.3.3-.3.4.2-.2.7-.3.3ZM48.4,153.8c-.2-.6-.5-1.1-.4-1.9.8-1.2,2.2-2.7,3.2-3.2-1,1.6-1.4,3.9-2.8,5.1ZM47.7,151.3c-.5-2.2-.9-4.7-1-7.3.3-.4.9-.5,1.2-.9,1.3.5,2.5,1.1,4,1.5-.1,3.5-2.5,4.7-4.1,6.7ZM48.4,142.8c1.4-.8,2.7-1.7,4.2-2.3-.3,1.2-.5,2.5-.7,3.8-1.3-.3-2.6-.7-3.5-1.5ZM52.1,146.4c0-.7.1-1.4.6-1.8,0,.7-.2,1.3-.6,1.8ZM52.5,144.5c.2-.9.3-2.1.7-2.8.4.7,0,2.3-.7,2.8ZM53.4,140.7c.1-.6.5-1,.9-1.5,0,.8-.4,1.2-.9,1.5ZM54.4,137.5c-.4-1-1.1-2.6-1-3.7,1.7.6,2.9,2.4,1,3.7ZM56.3,132.8c-1.1,0-2.4.1-3.4-.1-.2-1.1-.6-2-1.2-2.8,2.3,0,2.7-2,2.8-4.2,1.1-.6,1.8-1.5,2.9-2.1.2,1.8.5,3.5,1.2,4.8-.8,1.4-1.8,2.7-2.3,4.4ZM57.8,143.7c.2,0,.2-.2.1-.4.6.2.8.9,1.2,1.3-.6-.1-1.1-.4-1.3-.9ZM59.3,143.7c-2-.8-.1-4.2.4-5.6.8-1.9,1.4-4.2,3.4-4.1.3.8-.2,1.6-.3,2.5-.2,1.3,0,2.8-.3,3.8-.3,1.1-2.1,2.9-3.1,3.2,0,0,0,.2-.1.1ZM60.7,143.2c.7-.6,1.7-1.7,2.1-2.6.6-1.6.2-3.7.9-5.7.8.2,1.4,1,1.9,1.8.5.8,1.2,1.9,1.2,2.6,0,1.7-3.3,4.4-4.7,4.7-.9.2-1.9-.3-2.6.1.3-.7.9-.5,1.3-.9ZM78.8,145c-.2,0-.6.5-.7.1.2,0,.6-.6.7-.1ZM68.2,135c2.8,3.5,5.5,7.1,9.7,9.2-.5,2.3-3,.8-4.5,1.3,1.2,0,2,.2,2.9.4-.3.3.2,1.4-.4,1.5-4.3-1.7-12.3.6-15.4-2.3-.2-.2-1-.8-.4-.9,3.5.4,5.3-1.9,6.9-3.8,0-.3.3-.4.1-.9.9.3,1.4,1.7,2.5,1.3-3-.6-2.4-4.6-4.1-6.4,1.1,0,2,.3,2.8.6ZM65.7,135.9c-.3-.8-1.2-1-1.6-1.6,1.1,0,1.7,1.1,1.6,1.6ZM70.1,133.4c-1.7.8-2.2-1-3.2-1.2-1.3-.2-1.6,1.3-3.4,1.3-.4-.5-.4-1.6-.6-2.3,2.3-.6,5.4-1.4,7.9-.4,0,1.2-.1,2.1-.7,2.6ZM71.6,128.9c-3.1.2-6.1.5-8.3,1.6.9-1.8,2.5-2.8,4.1-3.8.6-.4,1.2-.8,1.8-1.2,1.2-.7,2.6-1.3,3.7-2.1,1.9-1.5,2.8-3.4,4.4-5.1.1.5,0,1.2.3,1.6-.7-2.3.7-3,1.8-4.2,0,.8-.2,1.8.1,2.3-2.1,2.2-1.8,6.9-5.1,7.9-.4.7-1.2,1.1-1.8,1.8-.3.4-.3,1.1-.9,1.2ZM79.5,122.4c.2.8-.9,2.3-1.3,2.5.5-.6.6-1.6,1-2.3-.9.8-1.2,2.3-1.8,3.5-1.7,1-2.7,2.7-5.3,2.8.6-1,1.2-1.9,2.2-2.6.7-.5,1.5-.6,2.1-1.3,1.1-1.5,1.5-3.9,2.5-5.3.3-.4.8-1,1.3-1-.3.3-.6.6-.6,1.2.8.7,1.3,2.3-.1,2.6ZM80.4,120.4c-.4-.3-.4-1.2.1-1.3,0,.4.2,1.2-.1,1.3ZM80.8,107.9c0,0-.2.1-.4.1,0,.2,0,.5,0,.7,0,0,.1,0,.2,0,0,.6-.3,1.2-.5,1.7-.2.6-.4,1.1-.6,1.7.3-.2.6-.5.8-.8-.3,1.1-1.1,1.9-1.9,2.6-.5.6-1,1.2-1.5,1.8,0,0,0,0,0,.1-.2.1-.3.3-.4.4,0,0,0,.2,0,.3-.3,1.3-1,2.5-1.9,3.4,0,.1-.1.2-.2.3-.5.6-1.5,1.2-2.2,1.8-2.3,1.9-4.7,3.7-7.3,5,1.4-4.6,3.7-8.8,4.5-13.6,0,0,.1-.3.1-.4.6-1.7,2-3.1,2.1-5,.2,0,.4,0,.6,0,0-.1,0-.2,0-.3-.2,0-.3,0-.5,0,.7-2.4.4-5.7,1.3-7.8-.5-.3,0-2,.3-2.5,2,1.7,6,1.3,6.4,4.4-.2.5-1,.4-1.2.9,0,.5.1.7,0,.9.1,0,.2,0,.3,0,.4,0,.7.1,1.2,0,0,.4,0,.7,0,1,.2.2.3.5.3.7,0,.2,0,.3,0,.5,0,0,.2-.2.3-.2.2.7.4,1.3.3,2.2ZM79.5,98.1c0,.4,0,.7-.3.9-.3-.3,0-.6.3-.9ZM81.8,101.3c-.3-.3-.8-.3-.7-1,.4,0,.8,0,1-.1,0,.5,0,.9-.3,1.2ZM82.7,96.4c-1.1.5-1.5,1.7-2.6,2-.1-.8.7-.9,1-1.6,0,0-.3,0-.3-.3,0-.1.3-.5.4-.7.5-1.4.4-2.3,1.6-2.6,0,1.1,0,2.3-.1,3.2ZM81.7,93.3c.1,0,.3-.6.4-.1-.2,0-.4.6-.4.1ZM82.9,92.6c-.3.2-1,0-1.3.3,0,1.4-1.1,1.6-1.6,2.5.4-.2.8-.5,1.2-.7-.2,1.1-.6,1.9-1.3,2.5-2-1.8-.4-7.1-3.5-7.8.5.4,1,.7,1.5,1.2.8,2.1.4,5.2,1.6,6.9-.7.2-.9.9-1.2,1.5-1.4-1.9-2.3-4.3-3.7-6.3,0,.4,0,.5-.4.4,0-2.6,1.3-5.3,1.6-8.2,1.4.2,2.4,1.5,3.5,1.5-1.3-.4-2.2-1.3-3.4-1.8.5-2.4.9-4.9,1.8-7,1.2,2.4,5.7,3.5,4.4,7.5-.5.4-1.6.8-1.2,1.6.5-1.1,1.7-1.4,1.9-2.8.6,2.6.4,6.4.1,8.8ZM82.7,70.1c-.6-.5-1.3-.7-1.9-1.2-.8-.7-1.2-1.6-2.2-2.1-.4-1.9.4-3.7.6-5.6,1.2,1.4,2.8,3,3.5,4.7.8,1.9.8,4.2,2.2,5.7.2,1.1.9,2.6,1.2,3.7,0,.1.4,1.1.1.6-1.1-2.2-1.9-4.3-3.5-5.9ZM84.6,116c1.6.4,1.6,2.2,2.2,4,.7,2.2,2.1,4.6,2.5,6.7,0,.1,0,.3-.1.3-.8-1-1.5-2.1-2.3-3.1,0-1.6-.9-2.3-1.8-3.1-.3-1.4-.2-3.3-.4-4.8ZM85.3,129.8c-.3-1.1,0-2.4,0-3.7.5,1.8.8,3.8,1.6,5.4-.2-3.5-1.7-6.5-1.6-9.8,1.5,1.8,1.9,4.8,4.1,5.9-.4,1-.3,2.2.1,3.1-.5.8-1,1.5-1.8,2.1-.5-1-2.1-1.6-2.5-2.9ZM93.8,136.2c-2.3-.5-3.7-2-5.6-2.9.5-.9,1.2-1.6,1.9-2.3.8.9,2.2,1.2,3.2,1.9,0,1.3.3,2.2.4,3.4ZM93.1,132.1c-1.1-.4-2.2-.9-2.9-1.8.4-.5.4-1.3.7-1.9,1.7.3,1.5,2.4,2.2,3.7ZM91.6,128.3c0-.3-.6,0-.6-.4.3-.1,0-.8.6-.7-.2.5.4.9,0,1.2ZM91.8,125.4c-.5-.4-.8-1.2-1-1.9-.3-.7-.5-1.6-.7-2.3.2-.7.6-1.1.4-2.1,1.6.3,2.9,1,4,1.9-.9,1.4-2.2,2.5-2.6,4.4ZM95,118.9c-1.8-.2-3.6-.6-5-1.3.8-1.5.8-3.8,1.5-5.4.2.7.8.9,1.5,1.2-.6,2.1,0,4.3,1.8,4.7-.3-.4-.8-.4-.9-1,.7.1.6-.6,1.2-.6-.2,1.2.3,1.7,0,2.5ZM123.7,152.2c.3.3,1.6,1.1,1.3,1-.4-.3-1.5-.6-1.3-1ZM141.3,126.5c-.6-.2-1.4-.2-1.6-.9.7,0,1.8,1,1.6.9ZM139.7,125.2c.4-.1.6-.4,1-.4.1.4.4.6.4,1-.4-.3-1.1-.3-1.5-.6ZM139.5,114.1c0,.4.8.8.6,1-.1-.3-.9-.7-.6-1ZM141,123.7c-.5-1.1-1.2-2-1.8-3.1.9.6,1.7,2.1,1.8,3.1ZM140.3,124.3c-.4.1-.6.4-1,.6-.6-.6.2-1.1,0-2.2.6.3.8,1,1,1.6ZM139.4,126.7c-.5.4-1.1-.2-1.6-.3.1-.6.3-1.2.7-1.5.3.5,0,.7-.1,1.2.6-.2,1.1-.2,1,.6ZM136.9,115.3c.5,1.6,2.3,2.8,1.8,5-.9-1.3-2.2-2.9-1.8-5ZM137,119.9c.7.7,1.8,1.6,1.9,2.2.1.5.3,1.4-.4,1.6-.9-1.9-2.8-2.8-3.8-4.7.5-.9,1.6.1,2.3.9ZM131.3,109.4c-.2,1.3-2,1-3.1,1.5.3-1,.8-1.6,1.2-2.5.8.2,1.2.7,1.9,1ZM128.3,107.8c-.4.1-1.4.4-1.2.7.6-.1,1.1-1.1,1.9-.6,0,1.4-1.1,1.9-1.8,2.8-.6-.6-1.4-1.1-1.8-1.9.2,0,.8.2.7-.1-.4,0-.8,0-1-.1-.1-1.4-.6-2.4-.9-3.5,1.3.9,2.9,1.6,4,2.8ZM128.1,112.8c-.4-.1-1-.2-1.2-.6.5-.6.8.2,1.2.6ZM124.6,111.7c.7-.3.8.2,1.5.3-.3.6-.6,1.1-1.3,1.2,0-.6-.3-.8-.1-1.5ZM124.4,111.6c0-1-.6-2.2-.4-2.9.9.4.4,2.2.9,2.9h-.4ZM125.6,111.4c.2,0,.5,0,.6-.1h-1c-.2-.3-.4-.7-.3-1.3.7.4,1.4.9,1.8,1.6-.1,0-.2.1-.1.3-.4,0-.7-.1-.9-.4ZM124.6,108.1c0-1.1-1.7-2.5-.7-3.2.2,1.1,1,2.3.7,3.2ZM123.7,104.4c0,.3,0,.6-.4.6,0-.3-.2-.6-.3-.9.5-.1.3.4.7.3ZM123.7,114.2c-1.2,1-2.9-.3-4-.7.5-.4,1.5-.3,2.2-.6.3-.4.4-1,1-1.2.3.8.4,1.8.7,2.5ZM122.4,111.4c0,.7-.6.8-.7,1.3-.6,0-.8.3-1.5.1-.9,1.2-2.4-.3-3.7-.4.7-1.9,4.3-2.1,5.9-1ZM118,110.9c.1-.8.8-.8,1-.1-.5-.1-.6.2-1,.1ZM121.1,110.4c.6,0,.9-.3,1.6-.1.2,1.6-1.3.8-1.6.1ZM120,109.8c0-1.2.4-1.8,1-2.3.5.9,1.3,1.4,1.5,2.6-1.1-.1-2,.5-2.5-.3ZM121.1,103.7c.2,1.4,1,3.1.9,4.4-.7-1-1.9-3.1-.9-4.4ZM120.3,105.9c.1.5.2.9.3,1.5-.4.7-1,1.1-.9,2.3,0,.5.7.5.3.9-.4,0-.7,0-.9.1-.8-1,0-1.8.3-2.9.3-.8.3-1.7.9-1.9ZM117.6,100.3c.7.6,1.5,1.1,2.3,1.6,0,1,0,1.9-.7,2.2-.8-.4-1.5-.9-2.3-1.3.3-.8.3-1.9.7-2.5ZM116.5,103.4c.9.4,1.8,1,2.6,1.5-.2,1.4-.8,2.4-1,3.8,0,.1-.1.2-.3.1-.7-1-1.6-1.8-2.1-3.1.3-.8.6-1.5.7-2.3ZM115.8,106.8c.6.9,1.3,1.8,2.1,2.5-.1.6-.6.8-.9,1.3-.8,0-1.3-.2-1.8-.4.2-1.1.2-2.4.6-3.4ZM115.2,110.6c.4.2,1,.2,1.3.4-.4.3-.5,1-1.3,1-.2-.3-.2-1.2,0-1.5ZM114.6,113.8c1-1.2,2.6-.5,4.2.1,1.1.4,2.1,1,2.8,1.3-3.6.9-5.2,3.7-7.9,5.4.1-2.5.7-4.5.9-6.9ZM112.1,126.5c0,.3.5,1.3.1,1,0-.4-.5-.8-.1-1ZM111.8,127.3c.2,1.3,1.2,1.6,1.3,2.9,0,.1-.1.2-.3.1-.5-.6-1.2-.9-1.9-1.3.1-.7.3-1.5.9-1.8ZM109.1,134.4c-.3-.4-1.2-1.1-.3-1.5-.1.6.7,1.1.3,1.5ZM110.4,139.9c-.2.4.4.6,0,.7-.5-.3-1.2-.5-2.1-.7-.6-.2-1.9.2-1.6-.9,1.2.3,2.6.5,3.7.9ZM110.1,136.5c1.8.9,3.5,2,5,3.2-.8.3-1.5.6-2.2.9-.3-1-1.5-1.2-2.6-1.5,0-1,0-1.8-.1-2.6ZM106,113.8c.8,0,1.3.5,2.1.6.1.7-.2.9-.1,1.6-1.2-.1-1.4-1.4-1.9-2.2ZM107.6,116.1c0,.4-.4.5-.4.9-.9-.5-2.1-1.4-1.2-2.5.4.7.8,1.4,1.6,1.6ZM107.7,113.8c-.3-.5-.8-.6-1.5-.7.3-.8.2-2,1.3-2.1.2.6.9,2.2.1,2.8ZM106.9,109c-.2-.2-.5-.4-.9-.4,0-.7,0-1.3.6-1.5-.1.7.7,1.3.3,1.9ZM106.1,103.1c0,.1-.1.2-.3.1-.7-1.1-1.7-2.4-1.3-4.1.5-.5,1.5-.5,2.3-.7,0,1.8-.8,2.8-.7,4.7ZM105.1,112.5c-.4-.2-1-.2-1.2-.6.6,0,.9-1.1,1.3-.7-.3.2,0,.9-.1,1.3ZM103.6,111.9c-.3,0-.6-.1-.7-.4.7-.4.9-1.9,1.9-1.5,0,1-.5,1.5-1.2,1.9ZM105,107.6c0,.1-.1.2-.3.1-.3-.4-.9-.4-1.2-.7.8-.6,1-1.7,2.1-2.1,0,1.1-.5,1.6-.6,2.6ZM103.8,109.5c-.4.7-.6,1.5-1.3,1.9-.3-.7,0-1.8.4-2.3.2.2.5.4.9.4ZM105,113.4c0,.6,0,1.1-.3,1.3-.5-.8-1.2-1.5-1.8-2.2.8.2,1.3.7,2.1.9ZM105.6,116.4c.3.6.9.7,1.2,1.3-.8.7-.8,2.1-1.8,2.6,0-1.5,0-2.9.6-4ZM105.3,122c1.1-.5,1.9.5,3.1.4-.4,1.4-.8,2.7-1.5,3.8-.6-1.3-1.8-2.6-1.6-4.2ZM105.6,121.4c.6-.5,2.2.3,3.1.4-.5,1-2.3-.3-3.1-.4ZM106.7,138.4c0-1.4.7-2.3,1-3.5.9.4,1.4,1,2.2,1.5,0,1,0,1.8.1,2.6-1.3,0-2.2-.5-3.4-.6ZM108.6,121.1c-.8-.3-2-.2-2.6-.7.5-.7.7-1.6,1.2-2.3.8,0,1.1.5,1.8.7,0,.8-.1,1.6-.3,2.3ZM107.7,117.5c0-.4.4-.5.4-.9.4,0,.5.3.9.3v1.2c-.6,0-.9-.4-1.3-.6ZM108.6,116.4c-.3-.4,0-1.1.1-1.5,0,.6.3.9.3,1.5h-.4ZM108.9,111c1,.4.6,2.6.3,3.5,0-1.2-1-2.6-.3-3.5ZM109.5,109.7c-.2-.7-.9-1-.7-2.1.3-.3.6-.5.9-.7,0,.9.2,2.1-.1,2.8ZM108.9,98.3c.4,1.1.5,2.5.6,3.8-.7,0-1.4.7-1.9.3.8-1,0-3.6,1.3-4.1ZM109.5,103.4c0,.9.3,1.4.1,2.3-.4.6-1.1,1-1.6,1.5-.4-.6-.9-1.2-.9-2.2.6-.8,1.5-1.2,2.3-1.6ZM107,97.4c0,.4-.7.5-.7.3.3,0,.3-.4.7-.3ZM106.4,96.4c0,.4-.8,1-1,.7.5,0,.3-.9,1-.7ZM102.3,91.7c0-.3-.8,0-.7-.4.4,0,1.1.3.7.4ZM98.8,92.4c-.1-.3-.3-.6-.3-1h.7c0,.5,0,.9-.4,1ZM99.4,90.9c-2.3.3-1.6-3.2-1.9-4.4.7,1.5,3,2.3,1.9,4.4ZM99.8,98c.3-1.2,2-1.6,2.1-2.6-.9.4-1.3,1.4-2.2,1.9-1-2.7,1.7-2.9,1.8-5.3,2.1.4,4.4,1.3,4.2,3.5-.1-.7-1.1-1.2-1.9-.7.8.3,1.6.6,1.8,1.5-1.6,1.8-2.5,4.3-5.6,4.5.3-1.2-.3-2-.1-2.8ZM100.9,101.2c-.5,0-.4.4-.7.4-.2-.5.7-.7.7-.4ZM100.4,106c-.1-1.1,0-2.4-.3-3.4.9-1.2,2.4-1.8,3.5-2.8.1,1.7.7,2.9,1.3,4.1-1.2.6-1.6,2-2.6,2.6-.6-.3-1.4-1.1-1.9-.6ZM100.7,108.1c.3.3.7.5,1.2.6,0,.5,0,1.1-.4,1.3-.6-.2-1.1-1.2-.7-1.9ZM102,112.3c0,.3-.4,1-.6.7.3-.1,0-.8.6-.7ZM100.9,110.3c.1.3.5.2.6.6-.5.2-1-.3-.6-.6ZM101.3,119.4c0-1.7-.3-3.3-.3-5.1.5-.5.9-1.2,1.5-1.8.2,1.4,1.9,2.1,2.2,3.4.3,1.3-.7,2.4-.4,4.2-1.1-.1-1.9-.6-2.9-.7ZM103.9,125.1c-1-.2-1.2-1.2-2.3-1.2-.2-.7.3-.7.6-1-1.2.1-.6-1.6-.7-2.5.9.1,1.8.3,2.6.4,0,.3.2.3.1.6-.6.5-1.3.9-1.9,1.5.9-.1,1.1-.9,2.2-.9,0,1.2-.5,1.9-.6,3.1ZM104.5,131.9c.2-.9-.4-1.7,0-2.3.5.7.7,1.7,0,2.3ZM104.8,123.6c.1,1.2,1.5,1.9,1.2,3.1-1.1-.5-2.1-1.6-1.2-3.1ZM106.1,140.7c.2,1.2.7,1.9,1,2.9-.6.6-.6,1.8-1.5,2.1-.2-1.9-.4-3.5.4-5ZM105.8,148.2c-.9-2.2,1.6-2.9,2.9-2.9-1.1.9-1.8,2.1-2.9,2.9ZM107,145.1c.5-.3.7-.9.9-1.5-.8-.8-1.2-2-1.3-3.5,1.6-.5,2.7.4,4.1.6,0,.6.5.8.6,1.3-1,1.4-2.1,3.4-4.2,3.1ZM111.4,141.6c0-.2-.5-.6-.1-.7,0,.3.5.1.4.4-.2,0-.1.3-.3.3ZM111,140.7c0-.3-.3-.4-.3-.7.7,0,1.1.3,1.3.9-.5,0-.5-.3-1-.1ZM113.3,143.7c-.2-.6-1.5-.9-1-1.8.6.3,1.2,1.2,1,1.8ZM121.4,150c-1.7-1.1-3-2.5-4.2-4-1.3-1.5-2.8-2.8-3.7-4.7.9-.3,1.6-.7,2.5-1,1.6,3.3,4.6,6,5.4,9.7ZM115.7,139.3c-1.7-1.8-4-2.9-6-4.4,0-1-.6-1.6-.7-2.5.4-.8,1-1.6,1.3-2.5,1.3.4,2.1,1.2,3.2,1.8.3.7.2,1.6.6,2.2.2-.7-.4-1.4,0-1.9.9.9,2,1.5,3.1,2.3,1,.8,2.1,1.6,2.9,2.5-1.1,1.2-2.7,1.9-4.4,2.5ZM120.3,136.3c-2.1-2-4.3-3.9-6.7-5.6.2-.5-.4-.9,0-1,.4.7,1.5,1.4,2.3,1.2-2.4-.3-3.1-3-3.4-5,2.3,3.7,5.5,6.5,9.4,8.6-.2.9-.9,1.3-1.6,1.8ZM125.8,125.8c0,.8-.5,1.3-.7,2.1-.2.7,0,1.6-.3,2.3-.5,1.6-1.8,2.7-2.5,4-1.3-1.3-3.7-2.2-5.4-4.1-.4-.4-.6-1-1-1.5-.8-1-2.6-2.6-2.8-4,0-.9.6-1.9.6-2.9,2,1.6,4.4,2.8,5,5.9.7,0,1.4.6,1.5.6,0-1-.7-.6-1.3-1,0-1.6-1.3-2.8-1.8-3.5,1,.5,2.4,1.4,3.4,1.5-2.4-1-4.7-2.2-6.4-3.8,2.3-1.7,4.3-3.8,7-5,1.2-.5,2-1.1,3.1-.6.6,1.2.8,2.8,1,4.2.9.9,1.6,2,2.6,2.8-.4,1.3-1.2,2.1-1.9,3.1ZM131.5,121.1c-.5,0-1,.3-1.6.3-.8-1.1-1.2-2.6-2.2-3.5.6,1.3,1.5,2.2,1.9,3.7-.4-.1-.5.1-.9.1-1.3-1.5-2.7-2.9-3.1-5.3.8.2,1.3.8,1.9,1.2-.8-1.2-2.6-1.3-2.5-3.4.5-.7,1.2-1.1,1.8-1.8,1.7.5,2.6,1.7,3.8,3.1.7.9,1.8,2,1.9,2.6,0,1-.9,1.8-1,2.9ZM132.8,117c-1-1.2-2-2.4-2.9-3.7,1,0,1.9-.3,2.8-.6-1.1,0-1.8.4-2.8.4-.6-.7-1.7-1.5-1.8-2.2,1.4-.3,3-.4,3.5-1.5.3.3.9.5,1.3.7-.2,2.3.8,5-.1,6.7ZM137.3,126.1c-.9,0-1.8-1-2.5-.9,0,0,0,0,0,0,.7.7,2.6.3,2.3,2-.4-.3-1.2-.2-1.6-.6-.3-.2-.4-.7-.7-1.4,0,0,0,0,0,0h0c0,0,0-.2-.2-.3-.2-.4-.8-.7-.9-1-.5-1.6.2-2.7.6-3.7,1.2,1.1,2.1,3.2,3.2,3.8,0-.2-.2-.2,0-.3,0,.4.4.4.4.9-.2.5-.6.9-.7,1.5ZM137.6,126.5c.5.1,1,.3,1.3.6-.4,0-.5.6-1.2.4-.2-.2-.1-.6-.1-1ZM138.2,127.8c1,.2,1.1-.4,1.8-.4.3,1,.8,1.7,1.3,2.5-1.3-.4-2.4-1.1-3.1-2.1ZM141.9,129.8c-.2-.7-1.2-1.3-.9-2.1-.6,0-.6-.6-.7-1,.6,0,1,.1,1.5.3,0,.9.6,2,.1,2.8ZM148.2,137.1c-3.3.6-5.1-1.1-6.7-2.6,0-1.4.3-2.4,1-3.1.9.9,2,2.5,2.9,2.9-.8-1.5-2.2-2.4-2.9-4.1.5.1.6-.3,1.2-.1,1.7,2.1,3.5,4.2,4.5,7ZM143.5,129.9c-.5-.1-.6.2-1,.1.2-.8-.4-1.6,0-2.1.2.8.8,1.2,1,1.9Z"/>
  <path class="cls-2" d="M40.2,80.8c-.1.2-.7.8-.6.6.3-.5.7-.7.6-.6Z"/>
  <path class="cls-1" d="M36,102.5c-1.5-.9.2-.1,0,0h0Z"/>
  <path class="cls-1" d="M30.7,133.4c-.4-.4-.8.4,0,0h0Z"/>
  <path class="cls-1" d="M23,131.5c-.8-.1-1.7.8-2.6,1,.2.2,1.9-.7,2.6-1Z"/>
  <path class="cls-1" d="M36.1,130.6c.5-.3.9-.7,1.3-1-.3-.1-1.2.4-1.3,1Z"/>
  <path class="cls-1" d="M24.7,130.2c.2.2.7-.5,1-.6-.3-.3-.7.5-1,.6Z"/>
  <path class="cls-1" d="M74.8,95.5c.3.3,0-.5,0-.7-.4.1,0,.5,0,.7Z"/>
  <path class="cls-1" d="M65.9,89.8c.5.7-.8-1.1,0,0h0Z"/>
</svg>