<?xml version="1.0" encoding="UTF-8"?>
<svg id="Layer_1" data-name="Layer 1" xmlns="http://www.w3.org/2000/svg" version="1.1" viewBox="0 0 70.7 112.2">
  <defs>
    <style>
      .cls-1 {
        fill: #fff;
        stroke-width: 0px;
      }
    </style>
  </defs>
  <path class="cls-1" d="M48.2.5c1.1.1,2.1.2,3.1.3,1.3.2,2.6.6,3.7.9.6.2,1.5.3,2.4.4C54.1,1,49.2.2,43.5,0c.2,0,.5.2.9.2,1.3,0,2.6.2,3.8.3Z"/>
  <path class="cls-1" d="M36.6.2c.5,0,1.4-.1,2.3-.2-2.9,0-5.6.3-8.1.6.8,0,1.5,0,2.4,0,1.1,0,2.3-.2,3.5-.2Z"/>
  <polygon class="cls-1" points="61.4 5.9 61.4 5.9 60 5.9 61.4 5.9"/>
  <path class="cls-1" d="M60.5,4.1c.3.2.6.4.9.6-.2-.5-.8-1.1-1.6-1.5-.1.1-.2.2-.1.3.3.2.6.4.8.6Z"/>
  <path class="cls-1" d="M42.3,5.6c0-.4-1.6-.8-3.4-.8s-2.6.4-2.6.9,2.3.8,4.1.8,1.1,0,1.4-.1h0s0,0,0,0c.5-.1.6-.4.6-.7ZM41.3,6.3c-.2,0-.5,0-.9,0-1.5,0-3.6-.4-3.6-.7s.7-.8,2.1-.8,2.9.4,2.9.7,0,0,0,.1c0,.2,0,.4-.5.5Z"/>
  <path class="cls-1" d="M43,5.6c0-.6-2-1.1-4.4-1.1s-3.4.5-3.4,1.1,2.9,1,5.3,1,1,0,1.4,0h-.1c-.3,0-.8,0-1.4,0-2,0-4.5-.4-4.5-.9s.9-.9,3-.9,3.8.4,3.8.9,0,.6-.8.8h.2c.9,0,1-.4,1-.8Z"/>
  <path class="cls-1" d="M39.3,5.3c-.9,0-1.7.2-1.7.4s1.1.5,2,.5,1.4-.3,1.4-.5-.8-.4-1.7-.4ZM39.4,5.9c-.6,0-1.3-.2-1.3-.3s.5-.2,1.1-.2,1.1.1,1.1.2-.3.3-.9.3Z"/>
  <path class="cls-1" d="M41.5,5.6c0-.3-1.2-.7-2.6-.7s-1.9.4-1.9.7,1.9.6,3.3.6.6,0,.7,0c.4,0,.4-.2.4-.4s0,0,0-.1c0,0,0,0,0-.1ZM39.6,6.1c-1,0-2.2-.3-2.2-.5s.9-.4,1.9-.4,1.9.2,1.9.4-.6.5-1.6.5Z"/>
  <path class="cls-1" d="M44.1,5.6c0-.7-2.3-1.5-5.3-1.5s-4.5.9-4.5,1.6,3.3,1.1,6.2,1.1,1.1,0,1.5,0h0c-.4,0-.8,0-1.4,0-2.6,0-5.7-.5-5.7-1.1s1.2-1.2,3.8-1.2,4.8.5,4.8,1.2,0,.8-1.3,1h.1c1.3,0,1.9-.4,1.9-1Z"/>
  <path class="cls-1" d="M33.5,4c-2.1.8-2.8,1.8-1.5,2.3.3.1.6.2,1,.3h1c-.3-.2-.6-.3-.9-.5-.4-.2-.6-.4-.6-.6,0-.5.7-1,1.7-1.4.9-.3,1.9-.6,3-.7l-.7-.3c-1.1.1-2.1.4-3,.7Z"/>
  <path class="cls-1" d="M34.1,6.6l-.9.2c3.5,1.1,6.8.8,8.9.7.1,0,.2,0,.3,0l-.2-.3c-.2,0-.4,0-.6,0-1.7.1-4.6.3-7.6-.6Z"/>
  <path class="cls-1" d="M43.1,4c.2,0,.3,0,.4.1l.7-.3c-.2,0-.4-.1-.6-.2-1.1-.3-2.9-.6-5.1-.6s-.9,0-1.4,0l.4.4c.3,0,.7,0,1,0,1.6,0,3.1.2,4.5.5Z"/>
  <path class="cls-1" d="M56.8,5.9c0,0,0-.2,0-.3,0-.5-.4-1.1-1.1-1.6l-2.4.3c.6.5.8,1.1.7,1.6-.2,1-.5,2.1-5.7,2.8.3.1.7.3,1.2.4,5.8-.8,7-2,7.3-3.2Z"/>
  <path class="cls-1" d="M23.5,3.8c-1.8.9-2,1.8-.7,2.6,1.1,0,1,0,.2.1.5.3,1,.5,1.8.7,2.7.9,5.2,1.4,7.4,1.8.2,0,.3-.1.6-.2,0,0,.2,0,.4-.1-2.2-.3-4.6-.9-7.1-1.7-1.7-.6-2.6-1.2-2.6-1.8s.5-.9,1.4-1.4c2-1,6-1.8,10.2-2.2l-.2-.4c-2.8.2-5.6.7-7.9,1.3.3,0,.5.2.5.2,0,0-.3,0-.8,0-1.3.3-2.4.7-3.3,1.1Z"/>
  <path class="cls-1" d="M56.2,2.7c-.5-.2-1.4-.3-2-.5,0,0,0,0-.1,0-.1,0-.3,0-.5,0,1.7.5,3,1,3.9,1.6h1c-.4-.3-.9-.4-1.3-.6-.4-.2-.4-.4-.9-.5Z"/>
  <path class="cls-1" d="M49.9,6.8c-.6.6-2.1,1.1-6,1.4h0c0,0-.3.1-.5,0h0s0,0,0,0c-3.4.3-7.4.4-12.4-1l-1.5.3c1.7.5,3.3.8,4.7,1,.5-.2,1-.4,1-.4,0,0-.4.2-.8.4,4.2.6,7.5.4,9.9.2,1.2,0,2.1-.2,3-.3-.4,0-.7,0-.7,0,0,0,.6,0,1.1,0,2.5-.4,3.7-.8,4.3-1.3l-2-.4Z"/>
  <path class="cls-1" d="M49.3,5.8c0,0,0-.1,0-.2,0-.7-.9-1.6-3.4-2.2l-1,.3c2.1.6,3.4,1.3,3.3,2-.1.7-.3,1.5-4.9,1.9l.4.4c5.3-.5,5.5-1.3,5.7-2.2Z"/>
  <path class="cls-1" d="M37.9,1.2c-1,0-2,0-3,.2l.5.4c.8,0,1.6-.1,2.5-.1,4.3-.1,7.8.1,10.7.7.7.2,1.4.3,2,.5.2,0,.4-.2.5-.3,0,0,.2-.2.4-.3-.4,0-.7-.2-1.1-.3-2.1-.4-4.5-.7-7.3-.8,0,0-.2,0-.4,0-1.5,0-3.1,0-4.8,0Z"/>
  <path class="cls-1" d="M45.4,5.7s0,0,0,0c0-.5-1.1-1.1-2.8-1.5-.9-.2-2.3-.4-4-.4s-.5,0-.8,0l.3.2-.5-.2c-1,0-1.9.3-2.7.6-1.6.6-2.1,1.4-1.1,1.8.3.1.6.2.9.3h.2s-.2,0-.2,0c2.7.8,5.3.6,6.9.5.2,0,.5,0,.7,0h0c-.4,0-1,0-1.6,0-3.3,0-6.7-.5-6.7-1.2s1.6-1.7,5-1.7,5.8.9,5.8,1.6-.3,1-2.3,1.2h0c2.7-.2,2.8-.7,2.9-1.2Z"/>
  <path class="cls-1" d="M47.2,5.7s0,0,0,0c0-.6-1.1-1.2-2.9-1.7l-.8.3c1.6.4,2.6,1,2.5,1.5-.1.5-.3,1.1-3.4,1.4l.3.3c3.9-.4,4.1-1,4.2-1.7Z"/>
  <path class="cls-1" d="M42.9,8l-.3-.4c0,0-.1,0-.2,0-2.2.2-6,.4-9.9-.7l-.9.2c5,1.4,8.7,1.1,11.2.9Z"/>
  <path class="cls-1" d="M44.7,9.1c-3.2.2-6.8.4-11.1-.2-.3,0-.6.2-.9.3,5.5.9,9.7.6,12.7.3,1.1,0,2.2-.2,3.1-.3-.5-.2-.3-.3-.4-.4,0,0,0,0-.1,0-.9.1-2,.2-3.3.3Z"/>
  <path class="cls-1" d="M52.6,1.9c.1,0,.3,0,.3-.1h.5c-.6,0-1.2-.3-1.9-.4-1-.2-2.6-.3-3.6-.4-1.1-.1-1.7-.3-2.9-.4-.4,0-.9,0-1.3,0,0,0-.2,0-.2,0-.2,0-.3,0-.3.2,3.2.1,6.1.4,8.5.9.3,0,.7.1,1,.2Z"/>
  <path class="cls-1" d="M54.9,4h.7c-.7-.6-1.8-1-3.1-1.4-.1,0-.3,0-.4.1-.5.2-.8.2-1.1.3,1.1.4,1.9.8,2.4,1.2l1.6-.2Z"/>
  <path class="cls-1" d="M19.9,6.7s0,0,0,0c.5.4.7.7,1.4,1,.6.3,1.7.4,2.5.7.8.3,1.3.7,2.2.9,1,.2,2.2.2,3.4.4,0,0,0,0,.1,0,.3,0,.6-.1.8-.1.3,0,.5,0,.9-.2-2.5-.4-5.1-1-8-2-.8-.3-1.5-.5-2-.8-.5,0-1,0-1.4,0Z"/>
  <path class="cls-1" d="M25.9,2.3c3.3-.8,7.6-1.4,11.7-1.5,1.5,0,3,0,4.4,0,0,0,0-.2.1-.3-.6,0-1.2,0-1.9,0-1.1,0-2.2.1-3.3.2-1.6,0-3.1.1-4.5.3-1.1,0-2,.3-3,.4-1.3.2-2.7.3-3.9.5-.2,0-.4,0-.6.1.1,0,.2,0,.2.1,0,0,.3.1.7.2Z"/>
  <path class="cls-1" d="M18.6,5.7c.2.2.5.4.8.6.4,0,1.2,0,1.4,0,0,0,.1,0,.2,0-.5-.4-.8-.8-.8-1.1,0-.6.6-1.1,1.7-1.7.9-.4,2.1-.8,3.5-1.2-.4,0-1.2,0-1.9-.2-.2,0-.4,0-.6.1-.7.2-.7.5-1.3.7-.8.3-2,.5-2.5.8-.5.4-.2.7-.2,1.1s-.4.5-.3.7Z"/>
  <path class="cls-1" d="M38.2,2.8c-.5,0-1,0-1.5,0l.2.2c.5,0,1.1,0,1.6,0,2,0,4,.2,5.7.6.1,0,.3,0,.4.1l.9-.4c0,0-.1,0-.2,0-1.9-.4-4.3-.6-7.2-.5Z"/>
  <path class="cls-1" d="M26.3,4.1c-.3.1-.5.3-.6.4h2.1c.1,0,.3,0,.5-.2,1.5-.7,4.3-1.3,7.4-1.6l-.3-.6c-3.7.3-7.2,1.1-9,2Z"/>
  <path class="cls-1" d="M29.3,4.4c-.2,0-.3.2-.4.3h.3s-.3,0-.3,0c-1,.7-.6,1.4,1.3,1.9.5.2.9.3,1.4.4l.8-.2c-.3-.1-.7-.2-1-.3-.5-.2-.8-.5-.8-.8,0-.6,1-1.3,2.2-1.8,1-.4,2.1-.6,3.3-.8h-.2c0,0,0-.2,0-.2-2.7.3-5.2.8-6.5,1.5Z"/>
  <path class="cls-1" d="M36.1,10.3c.9,0,2.2.2,3.2.2s2.6,0,3.8,0c1.2,0,2.2-.2,3.3-.2,1.3,0,2.6,0,3.7-.2,0,0,0-.2-.2-.3-.2,0-.3,0-.4,0-1,.1-2.1.2-3.3.3-4,.3-8.5.5-13.9-.3-.3.2-.9.3-1.3.4.3,0,.6.1.9.1,1.4.1,2.7,0,4.4.1Z"/>
  <path class="cls-1" d="M27.7,4.6h-2.1c-1.1.8-.5,1.6,1.8,2.3.7.2,1.3.4,1.9.6l1.4-.4c-.5-.1-1-.3-1.5-.4-1.3-.4-2-.9-2-1.4,0-.2.2-.5.5-.8Z"/>
  <path class="cls-1" d="M58.7,6c-.3,1.3-1.6,2.6-7.9,3.5.3.1.4.2.6.3.6,0,1.1-.2,1.7-.3.6-.1,1-.3,1.6-.4.8-.2,1.9-.3,2.5-.6,1-.4,1.3-.9,1.8-1.4.4-.4,1-.8,1-1.3,0-.1-.3-.3-.3-.4,0-.2.1-.4,0-.6-.2-.3-.4-.5-.8-.8-.1,0-.3-.2-.5-.3h-.9c.9.8,1.4,1.5,1.2,2.2Z"/>
  <path class="cls-1" d="M52.6,5.9c0-.4,0-.9-.6-1.4l-2,.2c.4.4.5.8.4,1.1,0,.3-.1.6-.5.9l2,.3c.4-.4.5-.8.6-1.2Z"/>
  <path class="cls-1" d="M49.3,3.3c0,0,.2,0,.4-.1-.6-.2-1.3-.4-2.1-.6-2.5-.5-5.7-.7-9.5-.6-.7,0-1.5,0-2.2.1l.7.5c.5,0,1.1,0,1.6,0,3.2,0,6,0,8.1.5,2,.4,3.2,1,3.8,1.6l1.9-.3c-.4-.4-1.1-.8-2.1-1.2-.5.2-.2.4-.2.4,0,0-.6-.1-.3-.3Z"/>
  <path class="cls-1" d="M70.7,24.6c-.1,0-.3,0-.4,0-.4,0-.8.1-1.2.2-4,1.9-8.4,2.9-8.8,1.3h0c1-2.8,2.1-5.7,2-6.9-.2-2.2-.4-2.3,0-4,.4-1.7-2.4-2.6,0-4,2.4-1.4,0-4.5,0-4.5h-.3c-1.8,1.4-4.5,2.6-7,3-.3.1-.6.2-1,.2.3,0,.5-.1.8-.2-1.4.3-2.8.7-4.7.8-1.7.2-3.8,0-5.8.2-1.6,0-2.5.2-4.3.2s-2.4-.1-3.2-.1c-1.5,0-4,0-5.4,0-1.8-.1-2.5-.5-4-.7-.8-.1-2,0-2.7-.2-.7-.1-1-.5-1.6-.7-.8-.2-2.7-.4-3.3-.7-.9-.3-.4-.7-1-1.1-.4-.2-1.6-.5-1.9-.7-.3-.3.3-.5,0-.8,0,0-.1-.1-.3-.2,0,.2-.1.4-.1.6,0,0,0,0,0,0-.4,1.9-.8,5,.4,6.7,1.8,2.5.7,3.6-.4,4.3-1.1.6-.6,6.7.4,8.3,1,1.6,1.1.9,0,3.9-1.1,3-.5,18.9-2.2,22.4-.7,1.5-6.3-.8-12.5-3.8-.3,0-.5,0-.8,0,0,0,0,0,0,0-.8,2-1,4.1-1.5,6.1,4,2.3,9,6.8,11.4,7.4,2.6.6,1.6,9.3,3,10.7,1.4,1.4.3,17.5.2,20.9,0,0-1.5,8.7-5.9,11.9-4.3,3.2,7.4,5.8,9.9,4.9s6-1.5,9.3-1.5,16.9,4.5,22.6,3.8c5.7-.8,8.8-4.5,11-4.5s5.8-2.8,4.8-3.9c-.9-1-4.4-3.1-6.7-8.9-.3-1.2-.5-2.2-.4-2.6.2-1.4,2.5-1.9,1.5-5.3-1-3.5-4.7-3.2-3.3-6.2s1.8-6.5,1.8-9.9c0-3.5,0-3.3,0-5.9,0-2.6-1.5-2.4,0-5.9,1.5-3.5,3-3.3,2.6-6.3-.5-3-4.2-6.2-2.6-8.6,1.6-2.4.4-2.9,0-4.3-.3-1.3.4-2.2,1-3,.6-.5,1.6-1.5,1.5-2.5,0-.5,1.5-1.4,3.6-2.5,0-.6.5-1.2,1.6-1.7,2.2-.9,3.1-2.4,3.6-3.7.2-.6.3-1.3.3-1.9ZM50.4,10.7c0,0-.2,0-.3,0,0,0,.2,0,.3,0Z"/>
</svg>