<?xml version="1.0" encoding="UTF-8"?>
<svg id="Layer_1" data-name="Layer 1" xmlns="http://www.w3.org/2000/svg" version="1.1" viewBox="0 0 126.7 82.7">
  <defs>
    <style>
      .cls-1 {
        fill: #fff;
        stroke-width: 0px;
      }
    </style>
  </defs>
  <path class="cls-1" d="M126.7,72c-.3-3-2.5-3.3-6.5-3.8l-21.2-2.8s-.1,0-.3,0c-.5-1.1-1.2-2.5-1.2-3.9,1.1-4.1,1.5-5.6,1.6-5.8,0-.1,0-.2-.1-.3.5-.5,1-1.1,1.1-2,.3-1.6-.8-3.2-.8-3.2,0,0-1,.6-1.6,1.6-.3-.9-.6-1.6-.7-2.1.3-.6.8-1.5.6-2.5-.2-1.6-1.8-2.7-1.8-2.7,0,0-1.2,1.5-1,3.1.2,1.6,1.8,2.7,1.8,2.7,0,0,0,0,0,0,.2.6.4,1.4.7,2.4,0,0,0,0,0,0-.3,1.5.7,3,.8,3.1-.5,1.8-1.4,5-1.5,5.4,0,.4.1,1.8.3,3.4,0,0,0,0-.1,0-5-2.4-13.8-6.6-15.4-7.4-.7,0-3.9,0-7.2-.1-2.2-2.5-4.9-5.7-8.3-9.7-1.7-4.4-2.9-7.5-3.8-9.7.7-1.9,1.5-4.3,2.6-7.3,4-5.1,5.5-6.9,6.1-7.6.6.4,1.5.8,2.5.7,1.6-.1,2.8-1.7,2.8-1.7,0,0-1.4-1.3-3-1.2-.6,0-1.1.3-1.6.6,0-.1,0-.2,0-.3.4-1,1-2.2,1.8-3.9,3-3.2,4.3-4.6,4.7-5.1.6.4,1.5.9,2.6.8,1.6-.1,2.8-1.7,2.8-1.7,0,0-1.4-1.3-3-1.2-.8,0-1.5.5-2,.9.5-3.8.8-5.8,1-6.8.6,0,1.8-.2,2.6-1,1.2-1.1,1.2-3,1.2-3,0,0-1.9-.1-3.1,1-.8.8-1.1,1.9-1.1,2.5-.1.6-.3,1.6-.7,3.5-.1-.5-.4-1.1-.8-1.6-1.1-1.2-3-1.2-3-1.2,0,0-.1,1.9,1,3.1.8.8,2,1.1,2.6,1.1-.1.8-.3,1.6-.5,2.6,0,.1-.2.4-.3.5-1.5,1.6-4.2,4.5-4.6,4.9,0,.2-.3.6-.5,1.2.6-4.4,1-6.6,1.1-7.7,0,0,0,0,0,0,0,0,.9-1.7.3-3.2-.5-1.5-2.3-2.3-2.3-2.3,0,0-.9,1.7-.3,3.2.3.9,1,1.5,1.6,1.9-.2.9-.5,2.6-1.2,6.1-.3-.6-.8-1.5-1.7-1.9-1.4-.8-3.3-.2-3.3-.2,0,0,.5,1.9,1.9,2.6,1,.5,2.2.4,2.8.3-.3,1.3-.6,2.9-.9,4.7,0,.2-.3.6-.4.8-2.2,2.4-6.3,6.8-6.9,7.3-.2.5-1.1,2.4-2.1,4.8-.8-2-.8-2-.9-2.3-.9-.7-1.7-1.4-2.5-2,.4-.5.9-1.4.9-2.4,0-1.6-1.4-2.9-1.4-2.9,0,0-1.4,1.3-1.4,2.9,0,.4,0,.7.2,1-1.7-1.4-3.2-2.5-4.5-3.5-.3-1-.5-2.2-.8-3.8,0-.7.1-1.4.2-1.9.6,0,1.9-.2,2.8-1,1.2-1.1,1.2-3,1.2-3,0,0-1.9-.1-3.1,1-.3.2-.5.5-.6.8.2-2,.2-2.9.3-3-1.2-2.1-2.1-3.6-2.7-4.8.7,0,1.8-.2,2.6-1,1.2-1.1,1.2-3,1.2-3,0,0-1.9-.1-3.1,1-.7.7-1,1.6-1.1,2.2-.5-.8-.8-1.4-1-1.7.3-.5,1-1.6.9-2.8-.2-1.6-1.7-2.8-1.7-2.8,0,0-1.3,1.5-1.1,3.1.1,1.1.8,1.9,1.3,2.4.2.5.7,1.6,2.2,4.5-.3-.4-.8-.8-1.3-1-1.4-.5-3,.2-3,.2,0,0,.7,1.6,2.1,2.2,1.2.4,2.5,0,2.8-.2.3.5.5,1,.8,1.6,0,.1.1.4,0,.6-.2,2.2-.6,6.2-.7,6.7,0,.3.4,1.4.7,2.8-1-.8-1.8-1.5-2.6-2,.3-.6.7-1.4.6-2.4-.2-1.6-1.7-2.8-1.7-2.8,0,0-1.3,1.5-1.1,3.1,0,.1,0,.3,0,.4-1.8-1.4-2.4-1.7-2.6-1.7-.4-.5-1.1-1.2-2-1.5-1.6-.4-3.2.6-3.2.6,0,0,.9,1.7,2.5,2.1,1,.3,2,0,2.6-.3.9,1,4.2,3.8,14.8,13.1.3.2.6.9.7,1.2,1.5,5,4.3,14.3,4.6,15.5.6.8,3,4,5.8,7.8-.5,0-1,0-1.4,0-.5,0-2-.5-2-.5l-21.8-9.6s-.9-.5-1.1-.7c-3-2.9-8.4-8-12.2-11.6-.9-1.5-2-3.2-3.4-5.5-2-8.6-1.9-8.2-1.9-8.6-.2-.3-.5-.5-.7-.7-.4-.8-.9-1.8-1.6-3.2-.4-2.6-.6-4.2-.8-5,.7,0,1.6-.3,2.3-1,1.2-1.1,1.2-3,1.2-3,0,0-1.9-.1-3.1,1-.5.5-.8,1.1-1,1.7-2-2.2-3.2-3.4-3.9-4.1.4-.5,1-1.6.8-2.7-.2-1.6-1.7-2.8-1.7-2.8,0,0-1.3,1.5-1.1,3.1.1,1.1.9,2,1.3,2.4.6.7,1.7,2,4,4.7,0,0,.2.3.2.5.3,1.8.7,5.1.8,5.6,0,.1.3.5.5.9-2.4-2.6-3.7-4-4.4-4.6,0,0,0,0,0,0,0,0-.7-1.6-2.1-2.2-1.4-.5-3,.2-3,.2,0,0,.7,1.6,2.1,2.2.8.3,1.7.2,2.3,0,.7.9,2.4,2.8,6.3,7.5.1.1.3.5.3.7,0,.2,0,.4,0,.5-.4-.4-.9-.8-1.6-1-1.6-.4-3.2.6-3.2.6,0,0,.9,1.7,2.5,2.1.9.3,1.9,0,2.5-.2.4,2.6.8,5.7.9,6.2.1.3.5,1,1,1.9-2,.1-3.7.3-5.3.4-1.1-.6-3.9-.5-5.8-1.8-2.6-3.3-3.6-4.5-3.8-4.7-.1,0-.2,0-.3,0,0-.6-.3-1.5-.9-2.1-1.1-1.2-3-1.2-3-1.2,0,0,0,1.2.4,2.2-.9-.3-1.6-.5-2.1-.6-.3-.6-.8-1.5-1.7-2-1.4-.8-3.3-.2-3.3-.2,0,0,.5,1.9,1.9,2.6,1.4.8,3.3.2,3.3.2,0,0,0,0,0,0,.6.2,1.4.5,2.4.8,0,0,0,0,0,0,1.1,1.1,2.8,1.2,3,1.2,1.1,1.4,3.2,4,3.5,4.4.3.2,1.1.7,2.2,1.4-9,.6-8.7.6-8.7,1.1,0,.8-.4.6,17.3.4.5,0,1.1,0,1.7.7,3.2,3.5,13.6,14.6,13.8,14.9.7.3,3.5,1.8,7,3.7-1.4.3-5.8,1.1-8.3,1.5-.2,0-.6,0-.8,0-1.5-.6-2.8-1.1-3.9-1.5.4-.4,1.1-1.2,1.1-2.2.1-1.4-1-2.7-1-2.7,0,0-1.3,1.1-1.4,2.5,0,.9.3,1.6.6,2.1-2.9-1.2-4.4-1.7-5.1-2,0-.6-.1-1.4-.6-2.1-.9-1.1-2.6-1.3-2.6-1.3,0,0-.3,1.7.6,2.8.9,1.1,2.6,1.3,2.6,1.3,0,0,0,0,0,0,1.1.5,3.6,1.7,9.1,4.2-.4.2-.9.5-1.2.9-.9,1.1-.6,2.8-.6,2.8,0,0,1.7-.2,2.6-1.3.5-.7.6-1.6.6-2.2.8,0,2.9-.3,8.5-.9,2.5.6,4.6,1.1,6.3,1.5,4.1,2.1,8.1,4.2,10.5,5.5,2.2.4,7.9,1.4,13.1,2.2.8.1,1.8.5,2.8,1.2,4,2.7,13,8.8,13.6,9.2,24.8,7.7,23.4,7.3,24.2,7.4,2.3.3,4.1.9,5.4-.2,1.8-1.6,3.1-7.7,2.9-10.1Z"/>
</svg>