<?xml version="1.0" encoding="UTF-8"?>
<svg xmlns="http://www.w3.org/2000/svg" viewBox="0 0 424.99 362.86">
  <defs>
    <style>
      .cls-1 {
        fill: #f2f2f2;
        mix-blend-mode: multiply;
      }

      .cls-1, .cls-2, .cls-3 {
        stroke-width: 0px;
      }

      .cls-4 {
        isolation: isolate;
      }

      .cls-2 {
        fill: #55575c;
      }

      .cls-3 {
        fill: #b3b3b3;
      }
    </style>
  </defs>
  <g class="cls-4">
    <g id="Layer_1" data-name="Layer 1">
      <g>
        <path class="cls-2" d="M28.54,256.71l-9.03.59.6,9.12,9.03-.59.32,4.95-22.49,1.47-.32-4.95,8.9-.58-.6-9.12-8.9.58-.32-4.95,22.49-1.47.32,4.95Z"/>
        <path class="cls-2" d="M29.59,223.96l-5.2,1.65-.76,9.5,4.87,2.46-.4,5.04-21.86-11.43.36-4.56,23.39-7.83-.41,5.17ZM12.36,229.44l7.05,3.56.48-5.97-7.52,2.41Z"/>
        <path class="cls-2" d="M31.66,209.73l-22.03-4.77,1.05-4.84,17.65,3.82,2.38-10.98,4.37.95-3.43,15.83Z"/>
        <path class="cls-2" d="M22.33,174.1l4.59,1.61,3.55-10.15,4.22,1.48-3.55,10.15,8.23,2.88-1.64,4.68-21.27-7.45,5.67-16.19,4.22,1.48-4.03,11.52Z"/>
        <path class="cls-2" d="M63.4,130.56l-12.52-7.73,4.86,10.45-.07.11-11.41.33,12.44,7.68-2.57,4.16-19.17-11.84,2.81-4.55,11.22-.03-5-10.05,2.81-4.55,19.17,11.84-2.57,4.16Z"/>
        <path class="cls-2" d="M81.79,96.4c.67,1.37,1.06,2.81,1.18,4.31s-.08,3-.58,4.52c-.5,1.51-1.31,2.93-2.45,4.25-1.14,1.32-2.41,2.33-3.83,3.04-1.42.71-2.86,1.12-4.35,1.25-1.48.12-2.95-.05-4.4-.52-1.45-.47-2.79-1.23-4-2.28l-.05-.04c-1.22-1.05-2.17-2.26-2.84-3.64-.67-1.37-1.06-2.81-1.18-4.31-.11-1.5.08-3,.58-4.52.5-1.51,1.31-2.93,2.45-4.25,1.14-1.32,2.41-2.33,3.83-3.04,1.42-.71,2.87-1.12,4.35-1.25,1.48-.13,2.95.05,4.4.52s2.79,1.23,4,2.28l.05.04c1.22,1.05,2.17,2.26,2.84,3.63ZM75.57,96.69c-.73-.63-1.53-1.1-2.4-1.41-.87-.31-1.74-.44-2.63-.4-.89.04-1.75.26-2.58.65-.83.39-1.57.96-2.21,1.71-.66.76-1.12,1.58-1.38,2.44-.26.87-.34,1.73-.24,2.6.1.87.37,1.71.79,2.51.42.8,1,1.52,1.74,2.15l.05.04c.73.63,1.53,1.1,2.4,1.41.87.31,1.74.44,2.63.4.89-.04,1.74-.25,2.57-.64.82-.38,1.56-.95,2.22-1.72.64-.75,1.1-1.56,1.37-2.43.27-.87.35-1.74.25-2.61s-.37-1.7-.79-2.51c-.42-.81-1-1.52-1.74-2.15l-.05-.04Z"/>
        <path class="cls-2" d="M107.14,73.72c.45,1.46.61,2.94.49,4.44-.12,1.5-.55,2.95-1.28,4.37-.73,1.42-1.75,2.69-3.08,3.81-1.33,1.12-2.74,1.92-4.25,2.4-1.51.48-3,.66-4.49.55-1.48-.11-2.9-.51-4.26-1.2s-2.56-1.65-3.6-2.88l-.04-.05c-1.04-1.23-1.79-2.57-2.23-4.03-.45-1.46-.61-2.94-.49-4.44.12-1.5.55-2.95,1.28-4.37.73-1.42,1.75-2.69,3.08-3.81,1.33-1.12,2.74-1.92,4.25-2.4,1.51-.48,3.01-.66,4.49-.55,1.48.11,2.9.51,4.26,1.2,1.36.69,2.56,1.65,3.6,2.88l.04.05c1.04,1.23,1.79,2.57,2.23,4.03ZM100.95,73.04c-.62-.74-1.34-1.33-2.15-1.77-.81-.44-1.65-.71-2.54-.81-.88-.1-1.76-.02-2.65.24-.88.25-1.7.7-2.45,1.34-.77.65-1.35,1.38-1.75,2.2-.39.81-.61,1.66-.64,2.53-.03.87.1,1.74.39,2.6.29.86.75,1.66,1.38,2.4l.04.05c.62.74,1.34,1.33,2.15,1.77.81.44,1.65.71,2.54.8.88.1,1.76.02,2.63-.23.87-.25,1.69-.7,2.46-1.35.75-.64,1.33-1.37,1.73-2.19.4-.82.62-1.67.66-2.54.03-.87-.1-1.74-.39-2.6-.29-.86-.75-1.66-1.38-2.4l-.04-.05Z"/>
        <path class="cls-2" d="M133.89,64.22l-16.8-6.48,7.51,12.2-4.17,2.56-11.81-19.19,3.89-2.4,16.27,6.29-7.27-11.82,4.17-2.56,11.81,19.19-3.59,2.21Z"/>
        <path class="cls-2" d="M177.66,44.98l-9.86-6.44-6.96,2.44,3.09,8.81-1.58.55-7.46-21.27,8.93-3.13c1.16-.41,2.25-.62,3.28-.66s1.98.1,2.82.41c.85.31,1.58.76,2.21,1.38.62.61,1.09,1.36,1.4,2.25l.02.06c.31.89.43,1.74.37,2.55-.07.81-.29,1.56-.67,2.26-.38.7-.89,1.34-1.54,1.92s-1.4,1.09-2.25,1.52l10.2,6.62-2,.7ZM171.98,29.94c-.51-1.44-1.44-2.39-2.79-2.85-1.36-.46-3-.35-4.95.33l-7.26,2.54,3.37,9.6,7.17-2.51c.89-.31,1.68-.71,2.36-1.2.68-.49,1.22-1.04,1.62-1.65.4-.61.65-1.27.76-1.98.1-.71.02-1.45-.25-2.22l-.02-.06Z"/>
        <path class="cls-2" d="M189.96,41.61l-4.55-22.07,15.7-3.24.31,1.48-14.06,2.9,1.8,8.73,12.64-2.61.31,1.48-12.64,2.61,1.83,8.89,14.22-2.93.31,1.48-15.86,3.27Z"/>
        <path class="cls-2" d="M231.12,32.48c-.32.79-.78,1.47-1.39,2.06s-1.36,1.06-2.25,1.43c-.89.37-1.88.59-2.97.68-1.8.14-3.44-.04-4.93-.53-1.49-.49-2.95-1.28-4.39-2.38l1-1.33c.66.53,1.32.98,1.96,1.35.64.37,1.29.67,1.96.88.66.22,1.35.37,2.07.46.72.09,1.49.1,2.33.03.83-.06,1.6-.23,2.29-.51.69-.28,1.26-.63,1.73-1.07.46-.43.81-.93,1.05-1.5.24-.57.33-1.17.28-1.81v-.06c-.05-.6-.18-1.13-.4-1.58-.22-.46-.58-.86-1.09-1.21-.51-.35-1.18-.65-2.02-.9-.84-.25-1.91-.45-3.21-.61-1.37-.18-2.55-.41-3.54-.72s-1.81-.68-2.46-1.14c-.65-.46-1.14-1-1.46-1.65-.33-.64-.53-1.39-.59-2.25v-.06c-.07-.83.06-1.62.36-2.37s.77-1.41,1.37-1.99c.6-.58,1.33-1.06,2.18-1.42.85-.37,1.81-.59,2.86-.67,1.63-.12,3.05,0,4.27.35,1.22.36,2.43.96,3.64,1.79l-.96,1.4c-1.14-.84-2.27-1.41-3.37-1.71-1.11-.3-2.29-.41-3.53-.32-.83.06-1.58.23-2.24.51-.66.28-1.21.62-1.66,1.05-.45.42-.79.9-1.01,1.43s-.3,1.09-.26,1.67v.06c.05.6.18,1.13.4,1.6.22.47.58.88,1.1,1.24s1.21.67,2.09.92c.88.26,2,.47,3.34.65,2.65.34,4.59.95,5.82,1.84,1.23.89,1.91,2.15,2.03,3.8v.06c.07.9-.05,1.74-.37,2.53Z"/>
        <path class="cls-2" d="M243.19,35.68l1.16-22.51,16.01.83-.08,1.51-14.34-.74-.46,8.91,12.89.67-.08,1.51-12.89-.67-.47,9.07,14.5.75-.08,1.51-16.17-.83Z"/>
        <path class="cls-2" d="M288.89,41.35l-1.63-6.74-13.06-2.5-4,5.66-1.71-.33,14.58-20.32,1.58.3,6.04,24.27-1.8-.35ZM283.49,19.07l-8.3,11.68,11.67,2.24-3.36-13.92Z"/>
        <path class="cls-2" d="M316.08,49.85l-3.76-11.16-6.97-2.39-3.03,8.83-1.58-.54,7.31-21.32,8.95,3.07c1.16.4,2.15.9,2.99,1.52.83.62,1.49,1.3,1.96,2.07.48.77.77,1.58.88,2.45.11.87.01,1.75-.29,2.64l-.02.06c-.31.89-.74,1.63-1.29,2.23s-1.2,1.05-1.93,1.36c-.73.32-1.53.5-2.4.55-.87.05-1.77-.01-2.71-.2l3.91,11.52-2.01-.69ZM320.94,34.51c.5-1.45.35-2.77-.43-3.97s-2.14-2.13-4.09-2.8l-7.28-2.5-3.3,9.62,7.19,2.46c.89.31,1.76.48,2.6.51.84.04,1.6-.06,2.29-.29.69-.23,1.3-.59,1.82-1.08.52-.49.91-1.13,1.18-1.9l.02-.06Z"/>
        <path class="cls-2" d="M344.19,60.84c-.78.15-1.57.21-2.37.19-.8-.02-1.61-.13-2.45-.33-.83-.21-1.69-.53-2.57-.98-1.44-.73-2.63-1.67-3.59-2.82-.95-1.16-1.64-2.42-2.06-3.8-.42-1.38-.56-2.83-.42-4.34.14-1.52.57-2.99,1.3-4.43l.03-.06c.72-1.42,1.65-2.63,2.79-3.64,1.15-1.01,2.4-1.76,3.77-2.26,1.37-.5,2.81-.71,4.31-.64,1.5.07,2.98.48,4.44,1.21.9.45,1.68.94,2.33,1.46.65.52,1.21,1.08,1.69,1.69.48.6.89,1.24,1.24,1.91.35.67.66,1.37.93,2.11l-1.62.55c-.23-.64-.49-1.27-.78-1.88s-.65-1.18-1.07-1.71c-.41-.53-.91-1.04-1.47-1.52-.56-.48-1.22-.9-1.97-1.28-1.21-.61-2.44-.95-3.71-1.01-1.27-.06-2.48.12-3.65.55-1.17.43-2.24,1.08-3.23,1.96-.98.87-1.79,1.94-2.43,3.21l-.03.06c-.64,1.26-1.02,2.56-1.13,3.88-.12,1.32,0,2.58.34,3.78.34,1.2.92,2.29,1.71,3.28.8.99,1.8,1.79,3.01,2.4,1.46.74,2.86,1.11,4.2,1.11,1.34,0,2.78-.24,4.31-.75l.51,1.48c-.8.25-1.59.44-2.37.59Z"/>
        <path class="cls-2" d="M366.96,78.02l6.04-8.66-11.83-8.25-6.04,8.66-1.37-.96,12.89-18.48,1.37.96-5.98,8.58,11.83,8.25,5.99-8.58,1.37.96-12.89,18.48-1.37-.96Z"/>
      </g>
      <circle class="cls-3" cx="35.98" cy="152.57" r="3.63"/>
      <path class="cls-1" d="M128.61,171.65c73.63-81.09,199.06-87.13,280.14-13.5,3.07,2.79,5.82,5.78,8.67,8.71-10.56-22.82-25.76-43.95-45.54-61.91-79.11-71.84-201.48-65.94-273.32,13.17-63.02,69.4-66.19,172.07-12.61,244.74-19.67-64.61-6.04-137.58,42.66-191.21Z"/>
    </g>
  </g>
</svg>