<?xml version="1.0" encoding="UTF-8"?>
<svg xmlns="http://www.w3.org/2000/svg" viewBox="0 0 738.34 148.06">
  <defs>
    <style>
      .cls-1 {
        mix-blend-mode: multiply;
      }

      .cls-1, .cls-2 {
        fill: #fff;
        stroke-width: 0px;
      }

      .cls-3 {
        isolation: isolate;
      }
    </style>
  </defs>
  <g class="cls-3">
    <g id="Layer_1" data-name="Layer 1">
      <g>
        <path class="cls-2" d="M70.16,103.56v-12.21h-12.34v12.21h-6.69v-30.42h6.69v12.04h12.34v-12.04h6.69v30.42h-6.69Z"/>
        <path class="cls-2" d="M115.49,103.56l-2.78-6.82h-12.87l-2.78,6.82h-6.82l13.04-30.64h6.17l13.04,30.64h-7ZM106.28,80.96l-4.04,9.87h8.08l-4.04-9.87Z"/>
        <path class="cls-2" d="M135.87,103.56v-30.42h6.69v24.38h15.17v6.04h-21.86Z"/>
        <path class="cls-2" d="M178.16,79.17v6.56h14.52v6.04h-14.52v11.78h-6.69v-30.42h23.17v6.04h-16.47Z"/>
        <path class="cls-2" d="M254.22,103.56v-19.86l-8.56,13h-.17l-8.48-12.87v19.73h-6.61v-30.42h7.21l8,12.86,8-12.86h7.21v30.42h-6.61Z"/>
        <path class="cls-2" d="M306.6,94.45c-.81,1.9-1.93,3.56-3.37,5-1.43,1.43-3.14,2.56-5.13,3.39-1.99.83-4.15,1.24-6.5,1.24s-4.51-.41-6.48-1.24c-1.97-.83-3.67-1.94-5.11-3.35-1.43-1.41-2.55-3.06-3.35-4.96-.8-1.9-1.2-3.93-1.2-6.11v-.09c0-2.17.41-4.21,1.22-6.11.81-1.9,1.93-3.56,3.37-5,1.43-1.43,3.14-2.56,5.13-3.39,1.98-.83,4.15-1.24,6.5-1.24s4.51.41,6.48,1.24c1.97.83,3.67,1.94,5.11,3.35,1.43,1.41,2.55,3.06,3.35,4.96s1.2,3.93,1.2,6.11v.09c0,2.17-.41,4.21-1.22,6.11ZM300.82,88.34c0-1.3-.22-2.54-.67-3.69s-1.09-2.17-1.91-3.04-1.8-1.56-2.93-2.06c-1.13-.51-2.36-.76-3.69-.76s-2.6.25-3.72.74c-1.12.49-2.07,1.17-2.87,2.04-.8.87-1.42,1.88-1.87,3.02s-.67,2.37-.67,3.67v.09c0,1.3.22,2.54.67,3.69s1.09,2.17,1.91,3.04,1.8,1.56,2.91,2.06c1.12.51,2.35.76,3.72.76s2.56-.25,3.69-.74c1.13-.49,2.09-1.17,2.89-2.04.8-.87,1.42-1.88,1.87-3.02s.67-2.37.67-3.67v-.09Z"/>
        <path class="cls-2" d="M352.23,94.45c-.81,1.9-1.93,3.56-3.37,5-1.43,1.43-3.14,2.56-5.13,3.39-1.99.83-4.15,1.24-6.5,1.24s-4.51-.41-6.48-1.24c-1.97-.83-3.67-1.94-5.11-3.35-1.43-1.41-2.55-3.06-3.35-4.96-.8-1.9-1.2-3.93-1.2-6.11v-.09c0-2.17.41-4.21,1.22-6.11.81-1.9,1.93-3.56,3.37-5,1.43-1.43,3.14-2.56,5.13-3.39,1.98-.83,4.15-1.24,6.5-1.24s4.51.41,6.48,1.24c1.97.83,3.67,1.94,5.11,3.35,1.43,1.41,2.55,3.06,3.35,4.96s1.2,3.93,1.2,6.11v.09c0,2.17-.41,4.21-1.22,6.11ZM346.45,88.34c0-1.3-.22-2.54-.67-3.69s-1.09-2.17-1.91-3.04-1.8-1.56-2.93-2.06c-1.13-.51-2.36-.76-3.69-.76s-2.6.25-3.72.74c-1.12.49-2.07,1.17-2.87,2.04-.8.87-1.42,1.88-1.87,3.02s-.67,2.37-.67,3.67v.09c0,1.3.22,2.54.67,3.69s1.09,2.17,1.91,3.04,1.8,1.56,2.91,2.06c1.12.51,2.35.76,3.72.76s2.56-.25,3.69-.74c1.13-.49,2.09-1.17,2.89-2.04.8-.87,1.42-1.88,1.87-3.02s.67-2.37.67-3.67v-.09Z"/>
        <path class="cls-2" d="M389.44,103.56l-14.73-19.34v19.34h-6.61v-30.42h6.17l14.26,18.73v-18.73h6.61v30.42h-5.69Z"/>
        <path class="cls-2" d="M455.63,103.56l-9.69-12.6h-9.95v12.6h-2.26v-30.42h12.78c1.65,0,3.14.21,4.48.63,1.33.42,2.47,1.01,3.41,1.78.94.77,1.67,1.68,2.19,2.74s.78,2.22.78,3.5v.09c0,1.28-.22,2.41-.67,3.41-.45,1-1.07,1.86-1.87,2.59-.8.72-1.74,1.31-2.83,1.76-1.09.45-2.27.76-3.54.93l10.04,13h-2.87ZM455.11,81.85c0-2.06-.76-3.69-2.28-4.88-1.52-1.19-3.67-1.79-6.45-1.79h-10.39v13.73h10.26c1.27,0,2.46-.16,3.54-.48,1.09-.32,2.02-.78,2.8-1.37.78-.6,1.4-1.32,1.85-2.18.45-.86.67-1.84.67-2.94v-.09Z"/>
        <path class="cls-2" d="M473.84,103.56v-30.42h21.65v2.04h-19.38v12.04h17.43v2.04h-17.43v12.26h19.6v2.04h-21.86Z"/>
        <path class="cls-2" d="M531.28,99.06c-.51,1.03-1.2,1.91-2.09,2.63-.88.72-1.94,1.29-3.17,1.7-1.23.41-2.59.61-4.06.61-2.43,0-4.63-.41-6.58-1.22s-3.85-2.03-5.67-3.65l1.48-1.69c.84.78,1.67,1.46,2.5,2.02.83.57,1.67,1.03,2.54,1.39.87.36,1.78.64,2.74.83.96.19,2,.28,3.13.28s2.17-.15,3.13-.46c.96-.3,1.77-.72,2.43-1.26.67-.54,1.19-1.17,1.56-1.91s.57-1.54.57-2.41v-.09c0-.81-.12-1.54-.37-2.17-.25-.64-.7-1.22-1.35-1.74-.65-.52-1.53-.99-2.63-1.41-1.1-.42-2.52-.8-4.26-1.15-1.83-.38-3.39-.82-4.69-1.33-1.3-.51-2.37-1.1-3.19-1.78-.83-.68-1.43-1.47-1.8-2.37-.38-.9-.56-1.93-.56-3.09v-.09c0-1.13.25-2.18.74-3.15s1.17-1.82,2.04-2.54c.87-.72,1.9-1.29,3.09-1.69,1.19-.41,2.49-.61,3.91-.61,2.2,0,4.11.3,5.72.91,1.61.61,3.18,1.54,4.72,2.78l-1.43,1.78c-1.45-1.25-2.91-2.13-4.37-2.65-1.46-.52-3.04-.78-4.72-.78-1.13,0-2.15.15-3.06.46-.91.3-1.7.72-2.35,1.24s-1.15,1.13-1.5,1.83-.52,1.43-.52,2.22v.09c0,.81.12,1.54.37,2.2.25.65.7,1.25,1.35,1.78.65.54,1.56,1.02,2.72,1.46,1.16.43,2.64.84,4.43,1.22,3.54.72,6.08,1.75,7.65,3.06,1.56,1.32,2.35,3.09,2.35,5.32v.09c0,1.22-.25,2.34-.76,3.37Z"/>
        <path class="cls-2" d="M548.16,103.56v-30.42h21.65v2.04h-19.38v12.04h17.43v2.04h-17.43v12.26h19.6v2.04h-21.86Z"/>
        <path class="cls-2" d="M611.4,103.56l-3.87-8.52h-17.95l-3.87,8.52h-2.35l14.17-30.64h2.17l14.17,30.64h-2.48ZM598.58,75.39l-8.04,17.6h16.04l-8-17.6Z"/>
        <path class="cls-2" d="M650.91,103.56l-9.69-12.6h-9.95v12.6h-2.26v-30.42h12.78c1.65,0,3.14.21,4.48.63,1.33.42,2.47,1.01,3.41,1.78.94.77,1.67,1.68,2.19,2.74s.78,2.22.78,3.5v.09c0,1.28-.22,2.41-.67,3.41-.45,1-1.07,1.86-1.87,2.59-.8.72-1.74,1.31-2.83,1.76-1.09.45-2.27.76-3.54.93l10.04,13h-2.87ZM650.39,81.85c0-2.06-.76-3.69-2.28-4.88-1.52-1.19-3.67-1.79-6.45-1.79h-10.39v13.73h10.26c1.27,0,2.46-.16,3.54-.48,1.09-.32,2.02-.78,2.8-1.37.78-.6,1.4-1.32,1.85-2.18.45-.86.67-1.84.67-2.94v-.09Z"/>
        <path class="cls-2" d="M692.48,100.93c-.85.65-1.77,1.21-2.74,1.67-.97.46-2.02.83-3.15,1.09-1.13.26-2.36.39-3.69.39-2.17,0-4.19-.41-6.04-1.22-1.85-.81-3.46-1.92-4.8-3.33-1.35-1.41-2.4-3.06-3.15-4.98-.75-1.91-1.13-3.96-1.13-6.13v-.09c0-2.14.38-4.17,1.15-6.08.77-1.91,1.83-3.59,3.17-5.02,1.35-1.43,2.95-2.56,4.8-3.39,1.85-.83,3.88-1.24,6.08-1.24,1.36,0,2.59.12,3.69.35,1.1.23,2.12.57,3.06,1,.94.43,1.83.95,2.65,1.54.83.59,1.63,1.25,2.41,1.98l-1.61,1.65c-.67-.64-1.36-1.23-2.09-1.78-.72-.55-1.5-1.02-2.33-1.41-.83-.39-1.72-.7-2.69-.93-.97-.23-2.02-.35-3.15-.35-1.83,0-3.52.35-5.08,1.04-1.56.7-2.92,1.66-4.06,2.89-1.15,1.23-2.04,2.67-2.69,4.32-.65,1.65-.98,3.43-.98,5.35v.09c0,1.91.33,3.7,1,5.37.67,1.67,1.57,3.12,2.72,4.35,1.14,1.23,2.5,2.2,4.06,2.91,1.56.71,3.26,1.06,5.08,1.06,2.2,0,4.11-.41,5.74-1.22,1.62-.81,3.2-1.98,4.74-3.52l1.52,1.48c-.81.78-1.65,1.5-2.5,2.15Z"/>
        <path class="cls-2" d="M731.62,103.56v-14.26h-19.47v14.26h-2.26v-30.42h2.26v14.12h19.47v-14.12h2.26v30.42h-2.26Z"/>
      </g>
      <circle class="cls-2" cx="211.99" cy="87.87" r="4.9"/>
      <path class="cls-1" d="M40.19,56.19c35.38-38.96,95.64-41.86,134.6-6.49,1.47,1.34,2.8,2.78,4.17,4.19-5.07-10.96-12.38-21.12-21.88-29.75C119.07-10.37,60.27-7.54,25.75,30.47-4.53,63.82-6.05,113.15,19.69,148.06c-9.45-31.04-2.9-66.1,20.5-91.87Z"/>
    </g>
  </g>
</svg>